<svg width="15" height="14" viewBox="0 0 15 14" fill="none" xmlns="http://www.w3.org/2000/svg">
    <path fill-rule="evenodd" clip-rule="evenodd"
          d="M7.00014 0.997147L1 6.99601L7.00014 0.997147ZM15.0001 6.99601C15.0001 6.99601 5.1037 6.99601 1 6.99601H15.0001ZM1 6.99601L7.00014 12.9969L1 6.99601Z"
          fill="black" fill-opacity="0.01"/>
    <path d="M6.29311 0.289964L0.292969 6.28882L1.70703 7.70319L7.70717 1.70433L6.29311 0.289964ZM15.0001 6.99601C15.0001 5.99601 15 5.99601 14.9999 5.99601C14.9999 5.99601 14.9998 5.99601 14.9996 5.99601C14.9995 5.99601 14.9993 5.99601 14.999 5.99601C14.9988 5.99601 14.9986 5.99601 14.9983 5.99601C14.998 5.99601 14.9976 5.99601 14.9972 5.99601C14.9969 5.99601 14.9965 5.99601 14.996 5.99601C14.9956 5.99601 14.9951 5.99601 14.9945 5.99601C14.994 5.99601 14.9935 5.99601 14.9929 5.99601C14.9923 5.99601 14.9916 5.99601 14.991 5.99601C14.9903 5.99601 14.9896 5.99601 14.9889 5.99601C14.9881 5.99601 14.9873 5.99601 14.9865 5.99601C14.9857 5.99601 14.9848 5.99601 14.984 5.99601C14.9831 5.99601 14.9821 5.99601 14.9812 5.99601C14.9802 5.99601 14.9792 5.99601 14.9782 5.99601C14.9771 5.99601 14.9761 5.99601 14.975 5.99601C14.9739 5.99601 14.9727 5.99601 14.9715 5.99601C14.9704 5.99601 14.9692 5.99601 14.9679 5.99601C14.9667 5.99601 14.9654 5.99601 14.964 5.99601C14.9627 5.99601 14.9614 5.99601 14.96 5.99601C14.9586 5.99601 14.9572 5.99601 14.9557 5.99601C14.9542 5.99601 14.9527 5.99601 14.9512 5.99601C14.9497 5.99601 14.9481 5.99601 14.9465 5.99601C14.9449 5.99601 14.9432 5.99601 14.9416 5.99601C14.9399 5.99601 14.9382 5.99601 14.9364 5.99601C14.9347 5.99601 14.9329 5.99601 14.9311 5.99601C14.9293 5.99601 14.9274 5.99601 14.9256 5.99601C14.9237 5.99601 14.9218 5.99601 14.9198 5.99601C14.9178 5.99601 14.9159 5.99601 14.9138 5.99601C14.9118 5.99601 14.9098 5.99601 14.9077 5.99601C14.9056 5.99601 14.9034 5.99601 14.9013 5.99601C14.8991 5.99601 14.8969 5.99601 14.8947 5.99601C14.8925 5.99601 14.8902 5.99601 14.8879 5.99601C14.8856 5.99601 14.8833 5.99601 14.8809 5.99601C14.8786 5.99601 14.8762 5.99601 14.8737 5.99601C14.8713 5.99601 14.8688 5.99601 14.8663 5.99601C14.8638 5.99601 14.8613 5.99601 14.8587 5.99601C14.8562 5.99601 14.8536 5.99601 14.8509 5.99601C14.8483 5.99601 14.8456 5.99601 14.8429 5.99601C14.8402 5.99601 14.8375 5.99601 14.8347 5.99601C14.832 5.99601 14.8292 5.99601 14.8263 5.99601C14.8235 5.99601 14.8206 5.99601 14.8177 5.99601C14.8148 5.99601 14.8119 5.99601 14.8089 5.99601C14.806 5.99601 14.803 5.99601 14.7999 5.99601C14.7969 5.99601 14.7939 5.99601 14.7908 5.99601C14.7877 5.99601 14.7845 5.99601 14.7814 5.99601C14.7782 5.99601 14.775 5.99601 14.7718 5.99601C14.7686 5.99601 14.7653 5.99601 14.762 5.99601C14.7587 5.99601 14.7554 5.99601 14.752 5.99601C14.7487 5.99601 14.7453 5.99601 14.7419 5.99601C14.7385 5.99601 14.735 5.99601 14.7315 5.99601C14.7281 5.99601 14.7245 5.99601 14.721 5.99601C14.7174 5.99601 14.7139 5.99601 14.7103 5.99601C14.7066 5.99601 14.703 5.99601 14.6993 5.99601C14.6957 5.99601 14.692 5.99601 14.6882 5.99601C14.6845 5.99601 14.6807 5.99601 14.6769 5.99601C14.6731 5.99601 14.6693 5.99601 14.6654 5.99601C14.6616 5.99601 14.6577 5.99601 14.6537 5.99601C14.6498 5.99601 14.6459 5.99601 14.6419 5.99601C14.6379 5.99601 14.6339 5.99601 14.6298 5.99601C14.6258 5.99601 14.6217 5.99601 14.6176 5.99601C14.6135 5.99601 14.6093 5.99601 14.6052 5.99601C14.601 5.99601 14.5968 5.99601 14.5926 5.99601C14.5883 5.99601 14.5841 5.99601 14.5798 5.99601C14.5755 5.99601 14.5712 5.99601 14.5668 5.99601C14.5625 5.99601 14.5581 5.99601 14.5537 5.99601C14.5492 5.99601 14.5448 5.99601 14.5403 5.99601C14.5359 5.99601 14.5313 5.99601 14.5268 5.99601C14.5223 5.99601 14.5177 5.99601 14.5131 5.99601C14.5085 5.99601 14.5039 5.99601 14.4993 5.99601C14.4946 5.99601 14.4899 5.99601 14.4852 5.99601C14.4805 5.99601 14.4757 5.99601 14.471 5.99601C14.4662 5.99601 14.4614 5.99601 14.4566 5.99601C14.4517 5.99601 14.4469 5.99601 14.442 5.99601C14.4371 5.99601 14.4322 5.99601 14.4272 5.99601C14.4223 5.99601 14.4173 5.99601 14.4123 5.99601C14.4073 5.99601 14.4023 5.99601 14.3972 5.99601C14.3921 5.99601 14.3871 5.99601 14.3819 5.99601C14.3768 5.99601 14.3717 5.99601 14.3665 5.99601C14.3613 5.99601 14.3561 5.99601 14.3509 5.99601C14.3456 5.99601 14.3404 5.99601 14.3351 5.99601C14.3298 5.99601 14.3245 5.99601 14.3191 5.99601C14.3138 5.99601 14.3084 5.99601 14.303 5.99601C14.2976 5.99601 14.2921 5.99601 14.2867 5.99601C14.2812 5.99601 14.2757 5.99601 14.2702 5.99601C14.2647 5.99601 14.2592 5.99601 14.2536 5.99601C14.248 5.99601 14.2424 5.99601 14.2368 5.99601C14.2311 5.99601 14.2255 5.99601 14.2198 5.99601C14.2141 5.99601 14.2084 5.99601 14.2027 5.99601C14.1969 5.99601 14.1912 5.99601 14.1854 5.99601C14.1796 5.99601 14.1738 5.99601 14.1679 5.99601C14.1621 5.99601 14.1562 5.99601 14.1503 5.99601C14.1444 5.99601 14.1384 5.99601 14.1325 5.99601C14.1265 5.99601 14.1206 5.99601 14.1145 5.99601C14.1085 5.99601 14.1025 5.99601 14.0964 5.99601C14.0904 5.99601 14.0843 5.99601 14.0782 5.99601C14.072 5.99601 14.0659 5.99601 14.0597 5.99601C14.0536 5.99601 14.0474 5.99601 14.0411 5.99601C14.0349 5.99601 14.0287 5.99601 14.0224 5.99601C14.0161 5.99601 14.0098 5.99601 14.0035 5.99601C13.9971 5.99601 13.9908 5.99601 13.9844 5.99601C13.978 5.99601 13.9716 5.99601 13.9652 5.99601C13.9587 5.99601 13.9523 5.99601 13.9458 5.99601C13.9393 5.99601 13.9328 5.99601 13.9263 5.99601C13.9197 5.99601 13.9132 5.99601 13.9066 5.99601C13.9 5.99601 13.8934 5.99601 13.8867 5.99601C13.8801 5.99601 13.8734 5.99601 13.8667 5.99601C13.8601 5.99601 13.8533 5.99601 13.8466 5.99601C13.8399 5.99601 13.8331 5.99601 13.8263 5.99601C13.8195 5.99601 13.8127 5.99601 13.8059 5.99601C13.799 5.99601 13.7922 5.99601 13.7853 5.99601C13.7784 5.99601 13.7715 5.99601 13.7645 5.99601C13.7576 5.99601 13.7506 5.99601 13.7436 5.99601C13.7366 5.99601 13.7296 5.99601 13.7226 5.99601C13.7155 5.99601 13.7085 5.99601 13.7014 5.99601C13.6943 5.99601 13.6872 5.99601 13.68 5.99601C13.6729 5.99601 13.6657 5.99601 13.6586 5.99601C13.6514 5.99601 13.6442 5.99601 13.6369 5.99601C13.6297 5.99601 13.6224 5.99601 13.6152 5.99601C13.6079 5.99601 13.6006 5.99601 13.5932 5.99601C13.5859 5.99601 13.5786 5.99601 13.5712 5.99601C13.5638 5.99601 13.5564 5.99601 13.549 5.99601C13.5416 5.99601 13.5341 5.99601 13.5266 5.99601C13.5192 5.99601 13.5117 5.99601 13.5041 5.99601C13.4966 5.99601 13.4891 5.99601 13.4815 5.99601C13.474 5.99601 13.4664 5.99601 13.4588 5.99601C13.4511 5.99601 13.4435 5.99601 13.4359 5.99601C13.4282 5.99601 13.4205 5.99601 13.4128 5.99601C13.4051 5.99601 13.3974 5.99601 13.3896 5.99601C13.3819 5.99601 13.3741 5.99601 13.3663 5.99601C13.3585 5.99601 13.3507 5.99601 13.3429 5.99601C13.335 5.99601 13.3272 5.99601 13.3193 5.99601C13.3114 5.99601 13.3035 5.99601 13.2956 5.99601C13.2876 5.99601 13.2797 5.99601 13.2717 5.99601C13.2637 5.99601 13.2557 5.99601 13.2477 5.99601C13.2397 5.99601 13.2317 5.99601 13.2236 5.99601C13.2155 5.99601 13.2074 5.99601 13.1993 5.99601C13.1912 5.99601 13.1831 5.99601 13.175 5.99601C13.1668 5.99601 13.1586 5.99601 13.1504 5.99601C13.1422 5.99601 13.134 5.99601 13.1258 5.99601C13.1176 5.99601 13.1093 5.99601 13.101 5.99601C13.0927 5.99601 13.0844 5.99601 13.0761 5.99601C13.0678 5.99601 13.0594 5.99601 13.0511 5.99601C13.0427 5.99601 13.0343 5.99601 13.0259 5.99601C13.0175 5.99601 13.0091 5.99601 13.0006 5.99601C12.9922 5.99601 12.9837 5.99601 12.9752 5.99601C12.9667 5.99601 12.9582 5.99601 12.9497 5.99601C12.9412 5.99601 12.9326 5.99601 12.924 5.99601C12.9155 5.99601 12.9069 5.99601 12.8983 5.99601C12.8897 5.99601 12.881 5.99601 12.8724 5.99601C12.8637 5.99601 12.855 5.99601 12.8463 5.99601C12.8376 5.99601 12.8289 5.99601 12.8202 5.99601C12.8115 5.99601 12.8027 5.99601 12.7939 5.99601C12.7851 5.99601 12.7764 5.99601 12.7675 5.99601C12.7587 5.99601 12.7499 5.99601 12.741 5.99601C12.7322 5.99601 12.7233 5.99601 12.7144 5.99601C12.7055 5.99601 12.6966 5.99601 12.6877 5.99601C12.6787 5.99601 12.6698 5.99601 12.6608 5.99601C12.6518 5.99601 12.6428 5.99601 12.6338 5.99601C12.6248 5.99601 12.6158 5.99601 12.6067 5.99601C12.5977 5.99601 12.5886 5.99601 12.5795 5.99601C12.5704 5.99601 12.5613 5.99601 12.5522 5.99601C12.5431 5.99601 12.5339 5.99601 12.5248 5.99601C12.5156 5.99601 12.5064 5.99601 12.4972 5.99601C12.488 5.99601 12.4788 5.99601 12.4696 5.99601C12.4603 5.99601 12.4511 5.99601 12.4418 5.99601C12.4325 5.99601 12.4232 5.99601 12.4139 5.99601C12.4046 5.99601 12.3953 5.99601 12.3859 5.99601C12.3766 5.99601 12.3672 5.99601 12.3578 5.99601C12.3484 5.99601 12.339 5.99601 12.3296 5.99601C12.3202 5.99601 12.3107 5.99601 12.3013 5.99601C12.2918 5.99601 12.2824 5.99601 12.2729 5.99601C12.2634 5.99601 12.2539 5.99601 12.2443 5.99601C12.2348 5.99601 12.2253 5.99601 12.2157 5.99601C12.2061 5.99601 12.1965 5.99601 12.1869 5.99601C12.1773 5.99601 12.1677 5.99601 12.1581 5.99601C12.1485 5.99601 12.1388 5.99601 12.1291 5.99601C12.1195 5.99601 12.1098 5.99601 12.1001 5.99601C12.0904 5.99601 12.0807 5.99601 12.0709 5.99601C12.0612 5.99601 12.0514 5.99601 12.0417 5.99601C12.0319 5.99601 12.0221 5.99601 12.0123 5.99601C12.0025 5.99601 11.9927 5.99601 11.9829 5.99601C11.973 5.99601 11.9632 5.99601 11.9533 5.99601C11.9434 5.99601 11.9335 5.99601 11.9236 5.99601C11.9137 5.99601 11.9038 5.99601 11.8939 5.99601C11.8839 5.99601 11.874 5.99601 11.864 5.99601C11.8541 5.99601 11.8441 5.99601 11.8341 5.99601C11.8241 5.99601 11.8141 5.99601 11.804 5.99601C11.794 5.99601 11.784 5.99601 11.7739 5.99601C11.7638 5.99601 11.7537 5.99601 11.7437 5.99601C11.7336 5.99601 11.7234 5.99601 11.7133 5.99601C11.7032 5.99601 11.6931 5.99601 11.6829 5.99601C11.6727 5.99601 11.6626 5.99601 11.6524 5.99601C11.6422 5.99601 11.632 5.99601 11.6218 5.99601C11.6116 5.99601 11.6013 5.99601 11.5911 5.99601C11.5808 5.99601 11.5706 5.99601 11.5603 5.99601C11.55 5.99601 11.5397 5.99601 11.5294 5.99601C11.5191 5.99601 11.5088 5.99601 11.4984 5.99601C11.4881 5.99601 11.4777 5.99601 11.4674 5.99601C11.457 5.99601 11.4466 5.99601 11.4362 5.99601C11.4258 5.99601 11.4154 5.99601 11.405 5.99601C11.3946 5.99601 11.3841 5.99601 11.3737 5.99601C11.3632 5.99601 11.3528 5.99601 11.3423 5.99601C11.3318 5.99601 11.3213 5.99601 11.3108 5.99601C11.3003 5.99601 11.2898 5.99601 11.2792 5.99601C11.2687 5.99601 11.2581 5.99601 11.2476 5.99601C11.237 5.99601 11.2264 5.99601 11.2158 5.99601C11.2052 5.99601 11.1946 5.99601 11.184 5.99601C11.1734 5.99601 11.1628 5.99601 11.1521 5.99601C11.1415 5.99601 11.1308 5.99601 11.1201 5.99601C11.1094 5.99601 11.0988 5.99601 11.0881 5.99601C11.0774 5.99601 11.0666 5.99601 11.0559 5.99601C11.0452 5.99601 11.0345 5.99601 11.0237 5.99601C11.0129 5.99601 11.0022 5.99601 10.9914 5.99601C10.9806 5.99601 10.9698 5.99601 10.959 5.99601C10.9482 5.99601 10.9374 5.99601 10.9266 5.99601C10.9157 5.99601 10.9049 5.99601 10.894 5.99601C10.8832 5.99601 10.8723 5.99601 10.8614 5.99601C10.8506 5.99601 10.8397 5.99601 10.8288 5.99601C10.8179 5.99601 10.8069 5.99601 10.796 5.99601C10.7851 5.99601 10.7741 5.99601 10.7632 5.99601C10.7522 5.99601 10.7413 5.99601 10.7303 5.99601C10.7193 5.99601 10.7083 5.99601 10.6973 5.99601C10.6863 5.99601 10.6753 5.99601 10.6643 5.99601C10.6533 5.99601 10.6422 5.99601 10.6312 5.99601C10.6201 5.99601 10.6091 5.99601 10.598 5.99601C10.5869 5.99601 10.5759 5.99601 10.5648 5.99601C10.5537 5.99601 10.5426 5.99601 10.5314 5.99601C10.5203 5.99601 10.5092 5.99601 10.4981 5.99601C10.4869 5.99601 10.4758 5.99601 10.4646 5.99601C10.4535 5.99601 10.4423 5.99601 10.4311 5.99601C10.4199 5.99601 10.4087 5.99601 10.3975 5.99601C10.3863 5.99601 10.3751 5.99601 10.3639 5.99601C10.3527 5.99601 10.3414 5.99601 10.3302 5.99601C10.3189 5.99601 10.3077 5.99601 10.2964 5.99601C10.2851 5.99601 10.2739 5.99601 10.2626 5.99601C10.2513 5.99601 10.24 5.99601 10.2287 5.99601C10.2174 5.99601 10.2061 5.99601 10.1947 5.99601C10.1834 5.99601 10.1721 5.99601 10.1607 5.99601C10.1494 5.99601 10.138 5.99601 10.1266 5.99601C10.1153 5.99601 10.1039 5.99601 10.0925 5.99601C10.0811 5.99601 10.0697 5.99601 10.0583 5.99601C10.0469 5.99601 10.0355 5.99601 10.0241 5.99601C10.0126 5.99601 10.0012 5.99601 9.98975 5.99601C9.97831 5.99601 9.96685 5.99601 9.95539 5.99601C9.94392 5.99601 9.93245 5.99601 9.92097 5.99601C9.90949 5.99601 9.898 5.99601 9.8865 5.99601C9.875 5.99601 9.86349 5.99601 9.85197 5.99601C9.84045 5.99601 9.82893 5.99601 9.81739 5.99601C9.80585 5.99601 9.79431 5.99601 9.78276 5.99601C9.7712 5.99601 9.75964 5.99601 9.74807 5.99601C9.7365 5.99601 9.72493 5.99601 9.71334 5.99601C9.70175 5.99601 9.69016 5.99601 9.67855 5.99601C9.66695 5.99601 9.65534 5.99601 9.64372 5.99601C9.6321 5.99601 9.62047 5.99601 9.60883 5.99601C9.59719 5.99601 9.58555 5.99601 9.5739 5.99601C9.56225 5.99601 9.55059 5.99601 9.53892 5.99601C9.52725 5.99601 9.51557 5.99601 9.50389 5.99601C9.49221 5.99601 9.48051 5.99601 9.46881 5.99601C9.45712 5.99601 9.44541 5.99601 9.4337 5.99601C9.42198 5.99601 9.41026 5.99601 9.39853 5.99601C9.3868 5.99601 9.37507 5.99601 9.36332 5.99601C9.35158 5.99601 9.33983 5.99601 9.32807 5.99601C9.31631 5.99601 9.30455 5.99601 9.29278 5.99601C9.281 5.99601 9.26922 5.99601 9.25744 5.99601C9.24565 5.99601 9.23386 5.99601 9.22206 5.99601C9.21026 5.99601 9.19845 5.99601 9.18664 5.99601C9.17483 5.99601 9.16301 5.99601 9.15118 5.99601C9.13936 5.99601 9.12752 5.99601 9.11568 5.99601C9.10384 5.99601 9.092 5.99601 9.08015 5.99601C9.06829 5.99601 9.05644 5.99601 9.04457 5.99601C9.03271 5.99601 9.02084 5.99601 9.00896 5.99601C8.99708 5.99601 8.9852 5.99601 8.97331 5.99601C8.96142 5.99601 8.94953 5.99601 8.93763 5.99601C8.92573 5.99601 8.91382 5.99601 8.90191 5.99601C8.89 5.99601 8.87808 5.99601 8.86616 5.99601C8.85423 5.99601 8.8423 5.99601 8.83037 5.99601C8.81843 5.99601 8.80649 5.99601 8.79455 5.99601C8.7826 5.99601 8.77065 5.99601 8.7587 5.99601C8.74674 5.99601 8.73478 5.99601 8.72281 5.99601C8.71085 5.99601 8.69888 5.99601 8.6869 5.99601C8.67492 5.99601 8.66294 5.99601 8.65095 5.99601C8.63897 5.99601 8.62698 5.99601 8.61498 5.99601C8.60298 5.99601 8.59098 5.99601 8.57898 5.99601C8.56697 5.99601 8.55496 5.99601 8.54295 5.99601C8.53093 5.99601 8.51891 5.99601 8.50689 5.99601C8.49487 5.99601 8.48284 5.99601 8.4708 5.99601C8.45877 5.99601 8.44673 5.99601 8.43469 5.99601C8.42265 5.99601 8.41061 5.99601 8.39856 5.99601C8.38651 5.99601 8.37445 5.99601 8.3624 5.99601C8.35034 5.99601 8.33828 5.99601 8.32621 5.99601C8.31415 5.99601 8.30208 5.99601 8.29001 5.99601C8.27793 5.99601 8.26586 5.99601 8.25378 5.99601C8.2417 5.99601 8.22961 5.99601 8.21752 5.99601C8.20544 5.99601 8.19335 5.99601 8.18125 5.99601C8.16916 5.99601 8.15706 5.99601 8.14496 5.99601C8.13286 5.99601 8.12075 5.99601 8.10865 5.99601C8.09654 5.99601 8.08443 5.99601 8.07232 5.99601C8.0602 5.99601 8.04809 5.99601 8.03597 5.99601C8.02385 5.99601 8.01172 5.99601 7.9996 5.99601C7.98747 5.99601 7.97535 5.99601 7.96322 5.99601C7.95108 5.99601 7.93895 5.99601 7.92682 5.99601C7.91468 5.99601 7.90254 5.99601 7.8904 5.99601C7.87826 5.99601 7.86612 5.99601 7.85397 5.99601C7.84182 5.99601 7.82968 5.99601 7.81753 5.99601C7.80538 5.99601 7.79322 5.99601 7.78107 5.99601C7.76891 5.99601 7.75676 5.99601 7.7446 5.99601C7.73244 5.99601 7.72028 5.99601 7.70812 5.99601C7.69595 5.99601 7.68379 5.99601 7.67162 5.99601C7.65946 5.99601 7.64729 5.99601 7.63512 5.99601C7.62295 5.99601 7.61078 5.99601 7.59861 5.99601C7.58643 5.99601 7.57426 5.99601 7.56208 5.99601C7.54991 5.99601 7.53773 5.99601 7.52555 5.99601C7.51338 5.99601 7.5012 5.99601 7.48902 5.99601C7.47683 5.99601 7.46465 5.99601 7.45247 5.99601C7.44029 5.99601 7.4281 5.99601 7.41592 5.99601C7.40373 5.99601 7.39155 5.99601 7.37936 5.99601C7.36717 5.99601 7.35499 5.99601 7.3428 5.99601C7.33061 5.99601 7.31842 5.99601 7.30623 5.99601C7.29404 5.99601 7.28185 5.99601 7.26966 5.99601C7.25747 5.99601 7.24528 5.99601 7.23309 5.99601C7.2209 5.99601 7.20871 5.99601 7.19652 5.99601C7.18432 5.99601 7.17213 5.99601 7.15994 5.99601C7.14775 5.99601 7.13555 5.99601 7.12336 5.99601C7.11117 5.99601 7.09898 5.99601 7.08679 5.99601C7.07459 5.99601 7.0624 5.99601 7.05021 5.99601C7.03802 5.99601 7.02583 5.99601 7.01364 5.99601C7.00144 5.99601 6.98925 5.99601 6.97706 5.99601C6.96487 5.99601 6.95268 5.99601 6.94049 5.99601C6.9283 5.99601 6.91612 5.99601 6.90393 5.99601C6.89174 5.99601 6.87955 5.99601 6.86737 5.99601C6.85518 5.99601 6.84299 5.99601 6.83081 5.99601C6.81862 5.99601 6.80644 5.99601 6.79426 5.99601C6.78207 5.99601 6.76989 5.99601 6.75771 5.99601C6.74553 5.99601 6.73335 5.99601 6.72117 5.99601C6.709 5.99601 6.69682 5.99601 6.68464 5.99601C6.67247 5.99601 6.6603 5.99601 6.64812 5.99601C6.63595 5.99601 6.62378 5.99601 6.61161 5.99601C6.59944 5.99601 6.58727 5.99601 6.57511 5.99601C6.56294 5.99601 6.55078 5.99601 6.53862 5.99601C6.52645 5.99601 6.51429 5.99601 6.50213 5.99601C6.48998 5.99601 6.47782 5.99601 6.46567 5.99601C6.45351 5.99601 6.44136 5.99601 6.42921 5.99601C6.41706 5.99601 6.40491 5.99601 6.39277 5.99601C6.38062 5.99601 6.36848 5.99601 6.35634 5.99601C6.3442 5.99601 6.33206 5.99601 6.31992 5.99601C6.30779 5.99601 6.29565 5.99601 6.28352 5.99601C6.27139 5.99601 6.25927 5.99601 6.24714 5.99601C6.23502 5.99601 6.2229 5.99601 6.21078 5.99601C6.19866 5.99601 6.18654 5.99601 6.17443 5.99601C6.16231 5.99601 6.15021 5.99601 6.1381 5.99601C6.12599 5.99601 6.11389 5.99601 6.10179 5.99601C6.08969 5.99601 6.07759 5.99601 6.0655 5.99601C6.0534 5.99601 6.04131 5.99601 6.02923 5.99601C6.01714 5.99601 6.00506 5.99601 5.99298 5.99601C5.9809 5.99601 5.96882 5.99601 5.95675 5.99601C5.94468 5.99601 5.93261 5.99601 5.92054 5.99601C5.90848 5.99601 5.89642 5.99601 5.88436 5.99601C5.8723 5.99601 5.86025 5.99601 5.8482 5.99601C5.83615 5.99601 5.82411 5.99601 5.81207 5.99601C5.80003 5.99601 5.78799 5.99601 5.77596 5.99601C5.76393 5.99601 5.7519 5.99601 5.73988 5.99601C5.72785 5.99601 5.71583 5.99601 5.70382 5.99601C5.69181 5.99601 5.6798 5.99601 5.66779 5.99601C5.65579 5.99601 5.64379 5.99601 5.63179 5.99601C5.6198 5.99601 5.6078 5.99601 5.59582 5.99601C5.58383 5.99601 5.57185 5.99601 5.55988 5.99601C5.5479 5.99601 5.53593 5.99601 5.52396 5.99601C5.512 5.99601 5.50004 5.99601 5.48808 5.99601C5.47613 5.99601 5.46418 5.99601 5.45223 5.99601C5.44029 5.99601 5.42835 5.99601 5.41642 5.99601C5.40448 5.99601 5.39255 5.99601 5.38063 5.99601C5.36871 5.99601 5.35679 5.99601 5.34488 5.99601C5.33297 5.99601 5.32107 5.99601 5.30917 5.99601C5.29727 5.99601 5.28537 5.99601 5.27348 5.99601C5.2616 5.99601 5.24971 5.99601 5.23784 5.99601C5.22596 5.99601 5.21409 5.99601 5.20223 5.99601C5.19037 5.99601 5.17851 5.99601 5.16666 5.99601C5.15481 5.99601 5.14296 5.99601 5.13112 5.99601C5.11929 5.99601 5.10746 5.99601 5.09563 5.99601C5.0838 5.99601 5.07199 5.99601 5.06017 5.99601C5.04836 5.99601 5.03656 5.99601 5.02476 5.99601C5.01296 5.99601 5.00117 5.99601 4.98938 5.99601C4.9776 5.99601 4.96582 5.99601 4.95405 5.99601C4.94228 5.99601 4.93051 5.99601 4.91876 5.99601C4.907 5.99601 4.89525 5.99601 4.88351 5.99601C4.87177 5.99601 4.86003 5.99601 4.8483 5.99601C4.83658 5.99601 4.82486 5.99601 4.81314 5.99601C4.80143 5.99601 4.78972 5.99601 4.77803 5.99601C4.76633 5.99601 4.75464 5.99601 4.74296 5.99601C4.73127 5.99601 4.7196 5.99601 4.70793 5.99601C4.69626 5.99601 4.68461 5.99601 4.67295 5.99601C4.6613 5.99601 4.64966 5.99601 4.63803 5.99601C4.62639 5.99601 4.61476 5.99601 4.60314 5.99601C4.59153 5.99601 4.57991 5.99601 4.56831 5.99601C4.55671 5.99601 4.54512 5.99601 4.53353 5.99601C4.52194 5.99601 4.51037 5.99601 4.4988 5.99601C4.48723 5.99601 4.47567 5.99601 4.46412 5.99601C4.45257 5.99601 4.44102 5.99601 4.42949 5.99601C4.41796 5.99601 4.40643 5.99601 4.39491 5.99601C4.3834 5.99601 4.37189 5.99601 4.36039 5.99601C4.34889 5.99601 4.3374 5.99601 4.32592 5.99601C4.31444 5.99601 4.30297 5.99601 4.29151 5.99601C4.28005 5.99601 4.26859 5.99601 4.25715 5.99601C4.24571 5.99601 4.23427 5.99601 4.22285 5.99601C4.21142 5.99601 4.20001 5.99601 4.1886 5.99601C4.1772 5.99601 4.1658 5.99601 4.15442 5.99601C4.14303 5.99601 4.13165 5.99601 4.12029 5.99601C4.10892 5.99601 4.09756 5.99601 4.08622 5.99601C4.07487 5.99601 4.06353 5.99601 4.0522 5.99601C4.04088 5.99601 4.02956 5.99601 4.01825 5.99601C4.00695 5.99601 3.99565 5.99601 3.98436 5.99601C3.97308 5.99601 3.9618 5.99601 3.95054 5.99601C3.93927 5.99601 3.92802 5.99601 3.91677 5.99601C3.90553 5.99601 3.89429 5.99601 3.88307 5.99601C3.87185 5.99601 3.86063 5.99601 3.84943 5.99601C3.83823 5.99601 3.82704 5.99601 3.81586 5.99601C3.80468 5.99601 3.79351 5.99601 3.78235 5.99601C3.77119 5.99601 3.76004 5.99601 3.74891 5.99601C3.73777 5.99601 3.72664 5.99601 3.71553 5.99601C3.70442 5.99601 3.69331 5.99601 3.68222 5.99601C3.67113 5.99601 3.66005 5.99601 3.64898 5.99601C3.63791 5.99601 3.62685 5.99601 3.61581 5.99601C3.60476 5.99601 3.59373 5.99601 3.58271 5.99601C3.57168 5.99601 3.56067 5.99601 3.54967 5.99601C3.53868 5.99601 3.52769 5.99601 3.51671 5.99601C3.50574 5.99601 3.49477 5.99601 3.48382 5.99601C3.47287 5.99601 3.46193 5.99601 3.45101 5.99601C3.44008 5.99601 3.42916 5.99601 3.41826 5.99601C3.40736 5.99601 3.39647 5.99601 3.38559 5.99601C3.37471 5.99601 3.36385 5.99601 3.35299 5.99601C3.34214 5.99601 3.3313 5.99601 3.32047 5.99601C3.30965 5.99601 3.29883 5.99601 3.28803 5.99601C3.27723 5.99601 3.26644 5.99601 3.25566 5.99601C3.24488 5.99601 3.23412 5.99601 3.22337 5.99601C3.21262 5.99601 3.20188 5.99601 3.19115 5.99601C3.18043 5.99601 3.16972 5.99601 3.15902 5.99601C3.14832 5.99601 3.13763 5.99601 3.12696 5.99601C3.11629 5.99601 3.10563 5.99601 3.09498 5.99601C3.08434 5.99601 3.07371 5.99601 3.06309 5.99601C3.05247 5.99601 3.04187 5.99601 3.03128 5.99601C3.02068 5.99601 3.01011 5.99601 2.99954 5.99601C2.98898 5.99601 2.97843 5.99601 2.96789 5.99601C2.95736 5.99601 2.94684 5.99601 2.93633 5.99601C2.92582 5.99601 2.91533 5.99601 2.90485 5.99601C2.89437 5.99601 2.8839 5.99601 2.87345 5.99601C2.863 5.99601 2.85256 5.99601 2.84214 5.99601C2.83172 5.99601 2.82131 5.99601 2.81091 5.99601C2.80052 5.99601 2.79014 5.99601 2.77978 5.99601C2.76941 5.99601 2.75906 5.99601 2.74873 5.99601C2.73839 5.99601 2.72807 5.99601 2.71776 5.99601C2.70746 5.99601 2.69717 5.99601 2.68689 5.99601C2.67662 5.99601 2.66635 5.99601 2.65611 5.99601C2.64586 5.99601 2.63563 5.99601 2.62542 5.99601C2.6152 5.99601 2.605 5.99601 2.59482 5.99601C2.58463 5.99601 2.57446 5.99601 2.56431 5.99601C2.55415 5.99601 2.54401 5.99601 2.53389 5.99601C2.52377 5.99601 2.51366 5.99601 2.50357 5.99601C2.49347 5.99601 2.4834 5.99601 2.47334 5.99601C2.46328 5.99601 2.45323 5.99601 2.4432 5.99601C2.43317 5.99601 2.42316 5.99601 2.41316 5.99601C2.40317 5.99601 2.39318 5.99601 2.38322 5.99601C2.37326 5.99601 2.36331 5.99601 2.35337 5.99601C2.34344 5.99601 2.33352 5.99601 2.32362 5.99601C2.31372 5.99601 2.30384 5.99601 2.29397 5.99601C2.28411 5.99601 2.27426 5.99601 2.26442 5.99601C2.25459 5.99601 2.24477 5.99601 2.23497 5.99601C2.22517 5.99601 2.21539 5.99601 2.20562 5.99601C2.19585 5.99601 2.1861 5.99601 2.17637 5.99601C2.16664 5.99601 2.15692 5.99601 2.14722 5.99601C2.13752 5.99601 2.12784 5.99601 2.11817 5.99601C2.10851 5.99601 2.09886 5.99601 2.08923 5.99601C2.0796 5.99601 2.06999 5.99601 2.06039 5.99601C2.05079 5.99601 2.04122 5.99601 2.03166 5.99601C2.02209 5.99601 2.01255 5.99601 2.00303 5.99601C1.9935 5.99601 1.98399 5.99601 1.9745 5.99601C1.96501 5.99601 1.95554 5.99601 1.94608 5.99601C1.93663 5.99601 1.92719 5.99601 1.91777 5.99601C1.90836 5.99601 1.89896 5.99601 1.88957 5.99601C1.88019 5.99601 1.87083 5.99601 1.86148 5.99601C1.85213 5.99601 1.84281 5.99601 1.8335 5.99601C1.82419 5.99601 1.8149 5.99601 1.80562 5.99601C1.79635 5.99601 1.7871 5.99601 1.77786 5.99601C1.76862 5.99601 1.75941 5.99601 1.75021 5.99601C1.74101 5.99601 1.73183 5.99601 1.72267 5.99601C1.71351 5.99601 1.70437 5.99601 1.69524 5.99601C1.68612 5.99601 1.67702 5.99601 1.66793 5.99601C1.65885 5.99601 1.64978 5.99601 1.64073 5.99601C1.63169 5.99601 1.62266 5.99601 1.61365 5.99601C1.60464 5.99601 1.59565 5.99601 1.58668 5.99601C1.57771 5.99601 1.56876 5.99601 1.55983 5.99601C1.5509 5.99601 1.54199 5.99601 1.5331 5.99601C1.52421 5.99601 1.51534 5.99601 1.50648 5.99601C1.49763 5.99601 1.4888 5.99601 1.47999 5.99601C1.47117 5.99601 1.46238 5.99601 1.45361 5.99601C1.44484 5.99601 1.43608 5.99601 1.42735 5.99601C1.41862 5.99601 1.40991 5.99601 1.40121 5.99601C1.39252 5.99601 1.38385 5.99601 1.3752 5.99601C1.36655 5.99601 1.35791 5.99601 1.3493 5.99601C1.34069 5.99601 1.3321 5.99601 1.32353 5.99601C1.31496 5.99601 1.30641 5.99601 1.29789 5.99601C1.28936 5.99601 1.28085 5.99601 1.27236 5.99601C1.26387 5.99601 1.25541 5.99601 1.24696 5.99601C1.23852 5.99601 1.23009 5.99601 1.22169 5.99601C1.21329 5.99601 1.2049 5.99601 1.19654 5.99601C1.18818 5.99601 1.17984 5.99601 1.17152 5.99601C1.16321 5.99601 1.15491 5.99601 1.14663 5.99601C1.13836 5.99601 1.1301 5.99601 1.12187 5.99601C1.11364 5.99601 1.10542 5.99601 1.09723 5.99601C1.08904 5.99601 1.08088 5.99601 1.07273 5.99601C1.06458 5.99601 1.05646 5.99601 1.04835 5.99601C1.04025 5.99601 1.03217 5.99601 1.02411 5.99601C1.01605 5.99601 1.00802 5.99601 1 5.99601V7.99601C1.00802 7.99601 1.01605 7.99601 1.02411 7.99601C1.03217 7.99601 1.04025 7.99601 1.04835 7.99601C1.05646 7.99601 1.06458 7.99601 1.07273 7.99601C1.08088 7.99601 1.08904 7.99601 1.09723 7.99601C1.10542 7.99601 1.11364 7.99601 1.12187 7.99601C1.1301 7.99601 1.13836 7.99601 1.14663 7.99601C1.15491 7.99601 1.16321 7.99601 1.17152 7.99601C1.17984 7.99601 1.18818 7.99601 1.19654 7.99601C1.2049 7.99601 1.21329 7.99601 1.22169 7.99601C1.23009 7.99601 1.23852 7.99601 1.24696 7.99601C1.25541 7.99601 1.26387 7.99601 1.27236 7.99601C1.28085 7.99601 1.28936 7.99601 1.29789 7.99601C1.30641 7.99601 1.31496 7.99601 1.32353 7.99601C1.3321 7.99601 1.34069 7.99601 1.3493 7.99601C1.35791 7.99601 1.36655 7.99601 1.3752 7.99601C1.38385 7.99601 1.39252 7.99601 1.40121 7.99601C1.40991 7.99601 1.41862 7.99601 1.42735 7.99601C1.43608 7.99601 1.44484 7.99601 1.45361 7.99601C1.46238 7.99601 1.47117 7.99601 1.47999 7.99601C1.4888 7.99601 1.49763 7.99601 1.50648 7.99601C1.51534 7.99601 1.52421 7.99601 1.5331 7.99601C1.54199 7.99601 1.5509 7.99601 1.55983 7.99601C1.56876 7.99601 1.57771 7.99601 1.58668 7.99601C1.59565 7.99601 1.60464 7.99601 1.61365 7.99601C1.62266 7.99601 1.63169 7.99601 1.64073 7.99601C1.64978 7.99601 1.65885 7.99601 1.66793 7.99601C1.67702 7.99601 1.68612 7.99601 1.69524 7.99601C1.70437 7.99601 1.71351 7.99601 1.72267 7.99601C1.73183 7.99601 1.74101 7.99601 1.75021 7.99601C1.75941 7.99601 1.76862 7.99601 1.77786 7.99601C1.7871 7.99601 1.79635 7.99601 1.80562 7.99601C1.8149 7.99601 1.82419 7.99601 1.8335 7.99601C1.84281 7.99601 1.85213 7.99601 1.86148 7.99601C1.87083 7.99601 1.88019 7.99601 1.88957 7.99601C1.89896 7.99601 1.90836 7.99601 1.91777 7.99601C1.92719 7.99601 1.93663 7.99601 1.94608 7.99601C1.95554 7.99601 1.96501 7.99601 1.9745 7.99601C1.98399 7.99601 1.9935 7.99601 2.00303 7.99601C2.01255 7.99601 2.02209 7.99601 2.03166 7.99601C2.04122 7.99601 2.05079 7.99601 2.06039 7.99601C2.06999 7.99601 2.0796 7.99601 2.08923 7.99601C2.09886 7.99601 2.10851 7.99601 2.11817 7.99601C2.12784 7.99601 2.13752 7.99601 2.14722 7.99601C2.15692 7.99601 2.16664 7.99601 2.17637 7.99601C2.1861 7.99601 2.19585 7.99601 2.20562 7.99601C2.21539 7.99601 2.22517 7.99601 2.23497 7.99601C2.24477 7.99601 2.25459 7.99601 2.26442 7.99601C2.27426 7.99601 2.28411 7.99601 2.29397 7.99601C2.30384 7.99601 2.31372 7.99601 2.32362 7.99601C2.33352 7.99601 2.34344 7.99601 2.35337 7.99601C2.36331 7.99601 2.37326 7.99601 2.38322 7.99601C2.39318 7.99601 2.40317 7.99601 2.41316 7.99601C2.42316 7.99601 2.43317 7.99601 2.4432 7.99601C2.45323 7.99601 2.46328 7.99601 2.47334 7.99601C2.4834 7.99601 2.49347 7.99601 2.50357 7.99601C2.51366 7.99601 2.52377 7.99601 2.53389 7.99601C2.54401 7.99601 2.55415 7.99601 2.56431 7.99601C2.57446 7.99601 2.58463 7.99601 2.59482 7.99601C2.605 7.99601 2.6152 7.99601 2.62542 7.99601C2.63563 7.99601 2.64586 7.99601 2.65611 7.99601C2.66635 7.99601 2.67662 7.99601 2.68689 7.99601C2.69717 7.99601 2.70746 7.99601 2.71776 7.99601C2.72807 7.99601 2.73839 7.99601 2.74873 7.99601C2.75906 7.99601 2.76941 7.99601 2.77978 7.99601C2.79014 7.99601 2.80052 7.99601 2.81091 7.99601C2.82131 7.99601 2.83172 7.99601 2.84214 7.99601C2.85256 7.99601 2.863 7.99601 2.87345 7.99601C2.8839 7.99601 2.89437 7.99601 2.90485 7.99601C2.91533 7.99601 2.92582 7.99601 2.93633 7.99601C2.94684 7.99601 2.95736 7.99601 2.96789 7.99601C2.97843 7.99601 2.98898 7.99601 2.99954 7.99601C3.01011 7.99601 3.02068 7.99601 3.03128 7.99601C3.04187 7.99601 3.05247 7.99601 3.06309 7.99601C3.07371 7.99601 3.08434 7.99601 3.09498 7.99601C3.10563 7.99601 3.11629 7.99601 3.12696 7.99601C3.13763 7.99601 3.14832 7.99601 3.15902 7.99601C3.16972 7.99601 3.18043 7.99601 3.19115 7.99601C3.20188 7.99601 3.21262 7.99601 3.22337 7.99601C3.23412 7.99601 3.24488 7.99601 3.25566 7.99601C3.26644 7.99601 3.27723 7.99601 3.28803 7.99601C3.29883 7.99601 3.30965 7.99601 3.32047 7.99601C3.3313 7.99601 3.34214 7.99601 3.35299 7.99601C3.36385 7.99601 3.37471 7.99601 3.38559 7.99601C3.39647 7.99601 3.40736 7.99601 3.41826 7.99601C3.42916 7.99601 3.44008 7.99601 3.45101 7.99601C3.46193 7.99601 3.47287 7.99601 3.48382 7.99601C3.49477 7.99601 3.50574 7.99601 3.51671 7.99601C3.52769 7.99601 3.53868 7.99601 3.54967 7.99601C3.56067 7.99601 3.57168 7.99601 3.58271 7.99601C3.59373 7.99601 3.60476 7.99601 3.61581 7.99601C3.62685 7.99601 3.63791 7.99601 3.64898 7.99601C3.66005 7.99601 3.67113 7.99601 3.68222 7.99601C3.69331 7.99601 3.70442 7.99601 3.71553 7.99601C3.72664 7.99601 3.73777 7.99601 3.74891 7.99601C3.76004 7.99601 3.77119 7.99601 3.78235 7.99601C3.79351 7.99601 3.80468 7.99601 3.81586 7.99601C3.82704 7.99601 3.83823 7.99601 3.84943 7.99601C3.86063 7.99601 3.87185 7.99601 3.88307 7.99601C3.89429 7.99601 3.90553 7.99601 3.91677 7.99601C3.92802 7.99601 3.93927 7.99601 3.95054 7.99601C3.9618 7.99601 3.97308 7.99601 3.98436 7.99601C3.99565 7.99601 4.00695 7.99601 4.01825 7.99601C4.02956 7.99601 4.04088 7.99601 4.0522 7.99601C4.06353 7.99601 4.07487 7.99601 4.08622 7.99601C4.09756 7.99601 4.10892 7.99601 4.12029 7.99601C4.13165 7.99601 4.14303 7.99601 4.15442 7.99601C4.1658 7.99601 4.1772 7.99601 4.1886 7.99601C4.20001 7.99601 4.21142 7.99601 4.22285 7.99601C4.23427 7.99601 4.24571 7.99601 4.25715 7.99601C4.26859 7.99601 4.28005 7.99601 4.29151 7.99601C4.30297 7.99601 4.31444 7.99601 4.32592 7.99601C4.3374 7.99601 4.34889 7.99601 4.36039 7.99601C4.37189 7.99601 4.3834 7.99601 4.39491 7.99601C4.40643 7.99601 4.41796 7.99601 4.42949 7.99601C4.44102 7.99601 4.45257 7.99601 4.46412 7.99601C4.47567 7.99601 4.48723 7.99601 4.4988 7.99601C4.51037 7.99601 4.52194 7.99601 4.53353 7.99601C4.54512 7.99601 4.55671 7.99601 4.56831 7.99601C4.57991 7.99601 4.59153 7.99601 4.60314 7.99601C4.61476 7.99601 4.62639 7.99601 4.63803 7.99601C4.64966 7.99601 4.6613 7.99601 4.67295 7.99601C4.68461 7.99601 4.69626 7.99601 4.70793 7.99601C4.7196 7.99601 4.73127 7.99601 4.74296 7.99601C4.75464 7.99601 4.76633 7.99601 4.77803 7.99601C4.78972 7.99601 4.80143 7.99601 4.81314 7.99601C4.82486 7.99601 4.83658 7.99601 4.8483 7.99601C4.86003 7.99601 4.87177 7.99601 4.88351 7.99601C4.89525 7.99601 4.907 7.99601 4.91876 7.99601C4.93051 7.99601 4.94228 7.99601 4.95405 7.99601C4.96582 7.99601 4.9776 7.99601 4.98938 7.99601C5.00117 7.99601 5.01296 7.99601 5.02476 7.99601C5.03656 7.99601 5.04836 7.99601 5.06017 7.99601C5.07199 7.99601 5.0838 7.99601 5.09563 7.99601C5.10746 7.99601 5.11929 7.99601 5.13112 7.99601C5.14296 7.99601 5.15481 7.99601 5.16666 7.99601C5.17851 7.99601 5.19037 7.99601 5.20223 7.99601C5.21409 7.99601 5.22596 7.99601 5.23784 7.99601C5.24971 7.99601 5.2616 7.99601 5.27348 7.99601C5.28537 7.99601 5.29727 7.99601 5.30917 7.99601C5.32107 7.99601 5.33297 7.99601 5.34488 7.99601C5.35679 7.99601 5.36871 7.99601 5.38063 7.99601C5.39255 7.99601 5.40448 7.99601 5.41642 7.99601C5.42835 7.99601 5.44029 7.99601 5.45223 7.99601C5.46418 7.99601 5.47613 7.99601 5.48808 7.99601C5.50004 7.99601 5.512 7.99601 5.52396 7.99601C5.53593 7.99601 5.5479 7.99601 5.55988 7.99601C5.57185 7.99601 5.58383 7.99601 5.59582 7.99601C5.6078 7.99601 5.6198 7.99601 5.63179 7.99601C5.64379 7.99601 5.65579 7.99601 5.66779 7.99601C5.6798 7.99601 5.69181 7.99601 5.70382 7.99601C5.71583 7.99601 5.72785 7.99601 5.73988 7.99601C5.7519 7.99601 5.76393 7.99601 5.77596 7.99601C5.78799 7.99601 5.80003 7.99601 5.81207 7.99601C5.82411 7.99601 5.83615 7.99601 5.8482 7.99601C5.86025 7.99601 5.8723 7.99601 5.88436 7.99601C5.89642 7.99601 5.90848 7.99601 5.92054 7.99601C5.93261 7.99601 5.94468 7.99601 5.95675 7.99601C5.96882 7.99601 5.9809 7.99601 5.99298 7.99601C6.00506 7.99601 6.01714 7.99601 6.02923 7.99601C6.04131 7.99601 6.0534 7.99601 6.0655 7.99601C6.07759 7.99601 6.08969 7.99601 6.10179 7.99601C6.11389 7.99601 6.12599 7.99601 6.1381 7.99601C6.15021 7.99601 6.16231 7.99601 6.17443 7.99601C6.18654 7.99601 6.19866 7.99601 6.21078 7.99601C6.2229 7.99601 6.23502 7.99601 6.24714 7.99601C6.25927 7.99601 6.27139 7.99601 6.28352 7.99601C6.29565 7.99601 6.30779 7.99601 6.31992 7.99601C6.33206 7.99601 6.3442 7.99601 6.35634 7.99601C6.36848 7.99601 6.38062 7.99601 6.39277 7.99601C6.40491 7.99601 6.41706 7.99601 6.42921 7.99601C6.44136 7.99601 6.45351 7.99601 6.46567 7.99601C6.47782 7.99601 6.48998 7.99601 6.50213 7.99601C6.51429 7.99601 6.52645 7.99601 6.53862 7.99601C6.55078 7.99601 6.56294 7.99601 6.57511 7.99601C6.58727 7.99601 6.59944 7.99601 6.61161 7.99601C6.62378 7.99601 6.63595 7.99601 6.64812 7.99601C6.6603 7.99601 6.67247 7.99601 6.68464 7.99601C6.69682 7.99601 6.709 7.99601 6.72117 7.99601C6.73335 7.99601 6.74553 7.99601 6.75771 7.99601C6.76989 7.99601 6.78207 7.99601 6.79426 7.99601C6.80644 7.99601 6.81862 7.99601 6.83081 7.99601C6.84299 7.99601 6.85518 7.99601 6.86737 7.99601C6.87955 7.99601 6.89174 7.99601 6.90393 7.99601C6.91612 7.99601 6.9283 7.99601 6.94049 7.99601C6.95268 7.99601 6.96487 7.99601 6.97706 7.99601C6.98925 7.99601 7.00144 7.99601 7.01364 7.99601C7.02583 7.99601 7.03802 7.99601 7.05021 7.99601C7.0624 7.99601 7.07459 7.99601 7.08679 7.99601C7.09898 7.99601 7.11117 7.99601 7.12336 7.99601C7.13555 7.99601 7.14775 7.99601 7.15994 7.99601C7.17213 7.99601 7.18432 7.99601 7.19652 7.99601C7.20871 7.99601 7.2209 7.99601 7.23309 7.99601C7.24528 7.99601 7.25747 7.99601 7.26966 7.99601C7.28185 7.99601 7.29404 7.99601 7.30623 7.99601C7.31842 7.99601 7.33061 7.99601 7.3428 7.99601C7.35499 7.99601 7.36717 7.99601 7.37936 7.99601C7.39155 7.99601 7.40373 7.99601 7.41592 7.99601C7.4281 7.99601 7.44029 7.99601 7.45247 7.99601C7.46465 7.99601 7.47683 7.99601 7.48902 7.99601C7.5012 7.99601 7.51338 7.99601 7.52555 7.99601C7.53773 7.99601 7.54991 7.99601 7.56208 7.99601C7.57426 7.99601 7.58643 7.99601 7.59861 7.99601C7.61078 7.99601 7.62295 7.99601 7.63512 7.99601C7.64729 7.99601 7.65946 7.99601 7.67162 7.99601C7.68379 7.99601 7.69595 7.99601 7.70812 7.99601C7.72028 7.99601 7.73244 7.99601 7.7446 7.99601C7.75676 7.99601 7.76891 7.99601 7.78107 7.99601C7.79322 7.99601 7.80538 7.99601 7.81753 7.99601C7.82968 7.99601 7.84182 7.99601 7.85397 7.99601C7.86612 7.99601 7.87826 7.99601 7.8904 7.99601C7.90254 7.99601 7.91468 7.99601 7.92682 7.99601C7.93895 7.99601 7.95108 7.99601 7.96322 7.99601C7.97535 7.99601 7.98747 7.99601 7.9996 7.99601C8.01172 7.99601 8.02385 7.99601 8.03597 7.99601C8.04809 7.99601 8.0602 7.99601 8.07232 7.99601C8.08443 7.99601 8.09654 7.99601 8.10865 7.99601C8.12075 7.99601 8.13286 7.99601 8.14496 7.99601C8.15706 7.99601 8.16916 7.99601 8.18125 7.99601C8.19335 7.99601 8.20544 7.99601 8.21752 7.99601C8.22961 7.99601 8.2417 7.99601 8.25378 7.99601C8.26586 7.99601 8.27793 7.99601 8.29001 7.99601C8.30208 7.99601 8.31415 7.99601 8.32621 7.99601C8.33828 7.99601 8.35034 7.99601 8.3624 7.99601C8.37445 7.99601 8.38651 7.99601 8.39856 7.99601C8.41061 7.99601 8.42265 7.99601 8.43469 7.99601C8.44673 7.99601 8.45877 7.99601 8.4708 7.99601C8.48284 7.99601 8.49487 7.99601 8.50689 7.99601C8.51891 7.99601 8.53093 7.99601 8.54295 7.99601C8.55496 7.99601 8.56697 7.99601 8.57898 7.99601C8.59098 7.99601 8.60298 7.99601 8.61498 7.99601C8.62698 7.99601 8.63897 7.99601 8.65095 7.99601C8.66294 7.99601 8.67492 7.99601 8.6869 7.99601C8.69888 7.99601 8.71085 7.99601 8.72281 7.99601C8.73478 7.99601 8.74674 7.99601 8.7587 7.99601C8.77065 7.99601 8.7826 7.99601 8.79455 7.99601C8.80649 7.99601 8.81843 7.99601 8.83037 7.99601C8.8423 7.99601 8.85423 7.99601 8.86616 7.99601C8.87808 7.99601 8.89 7.99601 8.90191 7.99601C8.91382 7.99601 8.92573 7.99601 8.93763 7.99601C8.94953 7.99601 8.96142 7.99601 8.97331 7.99601C8.9852 7.99601 8.99708 7.99601 9.00896 7.99601C9.02084 7.99601 9.03271 7.99601 9.04457 7.99601C9.05644 7.99601 9.06829 7.99601 9.08015 7.99601C9.092 7.99601 9.10384 7.99601 9.11568 7.99601C9.12752 7.99601 9.13936 7.99601 9.15118 7.99601C9.16301 7.99601 9.17483 7.99601 9.18664 7.99601C9.19845 7.99601 9.21026 7.99601 9.22206 7.99601C9.23386 7.99601 9.24565 7.99601 9.25744 7.99601C9.26922 7.99601 9.281 7.99601 9.29278 7.99601C9.30455 7.99601 9.31631 7.99601 9.32807 7.99601C9.33983 7.99601 9.35158 7.99601 9.36332 7.99601C9.37507 7.99601 9.3868 7.99601 9.39853 7.99601C9.41026 7.99601 9.42198 7.99601 9.4337 7.99601C9.44541 7.99601 9.45712 7.99601 9.46881 7.99601C9.48051 7.99601 9.49221 7.99601 9.50389 7.99601C9.51557 7.99601 9.52725 7.99601 9.53892 7.99601C9.55059 7.99601 9.56225 7.99601 9.5739 7.99601C9.58555 7.99601 9.59719 7.99601 9.60883 7.99601C9.62047 7.99601 9.6321 7.99601 9.64372 7.99601C9.65534 7.99601 9.66695 7.99601 9.67855 7.99601C9.69016 7.99601 9.70175 7.99601 9.71334 7.99601C9.72493 7.99601 9.7365 7.99601 9.74807 7.99601C9.75964 7.99601 9.7712 7.99601 9.78276 7.99601C9.79431 7.99601 9.80585 7.99601 9.81739 7.99601C9.82893 7.99601 9.84045 7.99601 9.85197 7.99601C9.86349 7.99601 9.875 7.99601 9.8865 7.99601C9.898 7.99601 9.90949 7.99601 9.92097 7.99601C9.93245 7.99601 9.94392 7.99601 9.95539 7.99601C9.96685 7.99601 9.97831 7.99601 9.98975 7.99601C10.0012 7.99601 10.0126 7.99601 10.0241 7.99601C10.0355 7.99601 10.0469 7.99601 10.0583 7.99601C10.0697 7.99601 10.0811 7.99601 10.0925 7.99601C10.1039 7.99601 10.1153 7.99601 10.1266 7.99601C10.138 7.99601 10.1494 7.99601 10.1607 7.99601C10.1721 7.99601 10.1834 7.99601 10.1947 7.99601C10.2061 7.99601 10.2174 7.99601 10.2287 7.99601C10.24 7.99601 10.2513 7.99601 10.2626 7.99601C10.2739 7.99601 10.2851 7.99601 10.2964 7.99601C10.3077 7.99601 10.3189 7.99601 10.3302 7.99601C10.3414 7.99601 10.3527 7.99601 10.3639 7.99601C10.3751 7.99601 10.3863 7.99601 10.3975 7.99601C10.4087 7.99601 10.4199 7.99601 10.4311 7.99601C10.4423 7.99601 10.4535 7.99601 10.4646 7.99601C10.4758 7.99601 10.4869 7.99601 10.4981 7.99601C10.5092 7.99601 10.5203 7.99601 10.5314 7.99601C10.5426 7.99601 10.5537 7.99601 10.5648 7.99601C10.5759 7.99601 10.5869 7.99601 10.598 7.99601C10.6091 7.99601 10.6201 7.99601 10.6312 7.99601C10.6422 7.99601 10.6533 7.99601 10.6643 7.99601C10.6753 7.99601 10.6863 7.99601 10.6973 7.99601C10.7083 7.99601 10.7193 7.99601 10.7303 7.99601C10.7413 7.99601 10.7522 7.99601 10.7632 7.99601C10.7741 7.99601 10.7851 7.99601 10.796 7.99601C10.8069 7.99601 10.8179 7.99601 10.8288 7.99601C10.8397 7.99601 10.8506 7.99601 10.8614 7.99601C10.8723 7.99601 10.8832 7.99601 10.894 7.99601C10.9049 7.99601 10.9157 7.99601 10.9266 7.99601C10.9374 7.99601 10.9482 7.99601 10.959 7.99601C10.9698 7.99601 10.9806 7.99601 10.9914 7.99601C11.0022 7.99601 11.0129 7.99601 11.0237 7.99601C11.0345 7.99601 11.0452 7.99601 11.0559 7.99601C11.0666 7.99601 11.0774 7.99601 11.0881 7.99601C11.0988 7.99601 11.1094 7.99601 11.1201 7.99601C11.1308 7.99601 11.1415 7.99601 11.1521 7.99601C11.1628 7.99601 11.1734 7.99601 11.184 7.99601C11.1946 7.99601 11.2052 7.99601 11.2158 7.99601C11.2264 7.99601 11.237 7.99601 11.2476 7.99601C11.2581 7.99601 11.2687 7.99601 11.2792 7.99601C11.2898 7.99601 11.3003 7.99601 11.3108 7.99601C11.3213 7.99601 11.3318 7.99601 11.3423 7.99601C11.3528 7.99601 11.3632 7.99601 11.3737 7.99601C11.3841 7.99601 11.3946 7.99601 11.405 7.99601C11.4154 7.99601 11.4258 7.99601 11.4362 7.99601C11.4466 7.99601 11.457 7.99601 11.4674 7.99601C11.4777 7.99601 11.4881 7.99601 11.4984 7.99601C11.5088 7.99601 11.5191 7.99601 11.5294 7.99601C11.5397 7.99601 11.55 7.99601 11.5603 7.99601C11.5706 7.99601 11.5808 7.99601 11.5911 7.99601C11.6013 7.99601 11.6116 7.99601 11.6218 7.99601C11.632 7.99601 11.6422 7.99601 11.6524 7.99601C11.6626 7.99601 11.6727 7.99601 11.6829 7.99601C11.6931 7.99601 11.7032 7.99601 11.7133 7.99601C11.7234 7.99601 11.7336 7.99601 11.7437 7.99601C11.7537 7.99601 11.7638 7.99601 11.7739 7.99601C11.784 7.99601 11.794 7.99601 11.804 7.99601C11.8141 7.99601 11.8241 7.99601 11.8341 7.99601C11.8441 7.99601 11.8541 7.99601 11.864 7.99601C11.874 7.99601 11.8839 7.99601 11.8939 7.99601C11.9038 7.99601 11.9137 7.99601 11.9236 7.99601C11.9335 7.99601 11.9434 7.99601 11.9533 7.99601C11.9632 7.99601 11.973 7.99601 11.9829 7.99601C11.9927 7.99601 12.0025 7.99601 12.0123 7.99601C12.0221 7.99601 12.0319 7.99601 12.0417 7.99601C12.0514 7.99601 12.0612 7.99601 12.0709 7.99601C12.0807 7.99601 12.0904 7.99601 12.1001 7.99601C12.1098 7.99601 12.1195 7.99601 12.1291 7.99601C12.1388 7.99601 12.1485 7.99601 12.1581 7.99601C12.1677 7.99601 12.1773 7.99601 12.1869 7.99601C12.1965 7.99601 12.2061 7.99601 12.2157 7.99601C12.2253 7.99601 12.2348 7.99601 12.2443 7.99601C12.2539 7.99601 12.2634 7.99601 12.2729 7.99601C12.2824 7.99601 12.2918 7.99601 12.3013 7.99601C12.3107 7.99601 12.3202 7.99601 12.3296 7.99601C12.339 7.99601 12.3484 7.99601 12.3578 7.99601C12.3672 7.99601 12.3766 7.99601 12.3859 7.99601C12.3953 7.99601 12.4046 7.99601 12.4139 7.99601C12.4232 7.99601 12.4325 7.99601 12.4418 7.99601C12.4511 7.99601 12.4603 7.99601 12.4696 7.99601C12.4788 7.99601 12.488 7.99601 12.4972 7.99601C12.5064 7.99601 12.5156 7.99601 12.5248 7.99601C12.5339 7.99601 12.5431 7.99601 12.5522 7.99601C12.5613 7.99601 12.5704 7.99601 12.5795 7.99601C12.5886 7.99601 12.5977 7.99601 12.6067 7.99601C12.6158 7.99601 12.6248 7.99601 12.6338 7.99601C12.6428 7.99601 12.6518 7.99601 12.6608 7.99601C12.6698 7.99601 12.6787 7.99601 12.6877 7.99601C12.6966 7.99601 12.7055 7.99601 12.7144 7.99601C12.7233 7.99601 12.7322 7.99601 12.741 7.99601C12.7499 7.99601 12.7587 7.99601 12.7675 7.99601C12.7764 7.99601 12.7851 7.99601 12.7939 7.99601C12.8027 7.99601 12.8115 7.99601 12.8202 7.99601C12.8289 7.99601 12.8376 7.99601 12.8463 7.99601C12.855 7.99601 12.8637 7.99601 12.8724 7.99601C12.881 7.99601 12.8897 7.99601 12.8983 7.99601C12.9069 7.99601 12.9155 7.99601 12.924 7.99601C12.9326 7.99601 12.9412 7.99601 12.9497 7.99601C12.9582 7.99601 12.9667 7.99601 12.9752 7.99601C12.9837 7.99601 12.9922 7.99601 13.0006 7.99601C13.0091 7.99601 13.0175 7.99601 13.0259 7.99601C13.0343 7.99601 13.0427 7.99601 13.0511 7.99601C13.0594 7.99601 13.0678 7.99601 13.0761 7.99601C13.0844 7.99601 13.0927 7.99601 13.101 7.99601C13.1093 7.99601 13.1176 7.99601 13.1258 7.99601C13.134 7.99601 13.1422 7.99601 13.1504 7.99601C13.1586 7.99601 13.1668 7.99601 13.175 7.99601C13.1831 7.99601 13.1912 7.99601 13.1993 7.99601C13.2074 7.99601 13.2155 7.99601 13.2236 7.99601C13.2317 7.99601 13.2397 7.99601 13.2477 7.99601C13.2557 7.99601 13.2637 7.99601 13.2717 7.99601C13.2797 7.99601 13.2876 7.99601 13.2956 7.99601C13.3035 7.99601 13.3114 7.99601 13.3193 7.99601C13.3272 7.99601 13.335 7.99601 13.3429 7.99601C13.3507 7.99601 13.3585 7.99601 13.3663 7.99601C13.3741 7.99601 13.3819 7.99601 13.3896 7.99601C13.3974 7.99601 13.4051 7.99601 13.4128 7.99601C13.4205 7.99601 13.4282 7.99601 13.4359 7.99601C13.4435 7.99601 13.4511 7.99601 13.4588 7.99601C13.4664 7.99601 13.474 7.99601 13.4815 7.99601C13.4891 7.99601 13.4966 7.99601 13.5041 7.99601C13.5117 7.99601 13.5192 7.99601 13.5266 7.99601C13.5341 7.99601 13.5416 7.99601 13.549 7.99601C13.5564 7.99601 13.5638 7.99601 13.5712 7.99601C13.5786 7.99601 13.5859 7.99601 13.5932 7.99601C13.6006 7.99601 13.6079 7.99601 13.6152 7.99601C13.6224 7.99601 13.6297 7.99601 13.6369 7.99601C13.6442 7.99601 13.6514 7.99601 13.6586 7.99601C13.6657 7.99601 13.6729 7.99601 13.68 7.99601C13.6872 7.99601 13.6943 7.99601 13.7014 7.99601C13.7085 7.99601 13.7155 7.99601 13.7226 7.99601C13.7296 7.99601 13.7366 7.99601 13.7436 7.99601C13.7506 7.99601 13.7576 7.99601 13.7645 7.99601C13.7715 7.99601 13.7784 7.99601 13.7853 7.99601C13.7922 7.99601 13.799 7.99601 13.8059 7.99601C13.8127 7.99601 13.8195 7.99601 13.8263 7.99601C13.8331 7.99601 13.8399 7.99601 13.8466 7.99601C13.8533 7.99601 13.8601 7.99601 13.8667 7.99601C13.8734 7.99601 13.8801 7.99601 13.8867 7.99601C13.8934 7.99601 13.9 7.99601 13.9066 7.99601C13.9132 7.99601 13.9197 7.99601 13.9263 7.99601C13.9328 7.99601 13.9393 7.99601 13.9458 7.99601C13.9523 7.99601 13.9587 7.99601 13.9652 7.99601C13.9716 7.99601 13.978 7.99601 13.9844 7.99601C13.9908 7.99601 13.9971 7.99601 14.0035 7.99601C14.0098 7.99601 14.0161 7.99601 14.0224 7.99601C14.0287 7.99601 14.0349 7.99601 14.0411 7.99601C14.0474 7.99601 14.0536 7.99601 14.0597 7.99601C14.0659 7.99601 14.072 7.99601 14.0782 7.99601C14.0843 7.99601 14.0904 7.99601 14.0964 7.99601C14.1025 7.99601 14.1085 7.99601 14.1145 7.99601C14.1206 7.99601 14.1265 7.99601 14.1325 7.99601C14.1384 7.99601 14.1444 7.99601 14.1503 7.99601C14.1562 7.99601 14.1621 7.99601 14.1679 7.99601C14.1738 7.99601 14.1796 7.99601 14.1854 7.99601C14.1912 7.99601 14.1969 7.99601 14.2027 7.99601C14.2084 7.99601 14.2141 7.99601 14.2198 7.99601C14.2255 7.99601 14.2311 7.99601 14.2368 7.99601C14.2424 7.99601 14.248 7.99601 14.2536 7.99601C14.2592 7.99601 14.2647 7.99601 14.2702 7.99601C14.2757 7.99601 14.2812 7.99601 14.2867 7.99601C14.2921 7.99601 14.2976 7.99601 14.303 7.99601C14.3084 7.99601 14.3138 7.99601 14.3191 7.99601C14.3245 7.99601 14.3298 7.99601 14.3351 7.99601C14.3404 7.99601 14.3456 7.99601 14.3509 7.99601C14.3561 7.99601 14.3613 7.99601 14.3665 7.99601C14.3717 7.99601 14.3768 7.99601 14.3819 7.99601C14.3871 7.99601 14.3921 7.99601 14.3972 7.99601C14.4023 7.99601 14.4073 7.99601 14.4123 7.99601C14.4173 7.99601 14.4223 7.99601 14.4272 7.99601C14.4322 7.99601 14.4371 7.99601 14.442 7.99601C14.4469 7.99601 14.4517 7.99601 14.4566 7.99601C14.4614 7.99601 14.4662 7.99601 14.471 7.99601C14.4757 7.99601 14.4805 7.99601 14.4852 7.99601C14.4899 7.99601 14.4946 7.99601 14.4993 7.99601C14.5039 7.99601 14.5085 7.99601 14.5131 7.99601C14.5177 7.99601 14.5223 7.99601 14.5268 7.99601C14.5313 7.99601 14.5359 7.99601 14.5403 7.99601C14.5448 7.99601 14.5492 7.99601 14.5537 7.99601C14.5581 7.99601 14.5625 7.99601 14.5668 7.99601C14.5712 7.99601 14.5755 7.99601 14.5798 7.99601C14.5841 7.99601 14.5883 7.99601 14.5926 7.99601C14.5968 7.99601 14.601 7.99601 14.6052 7.99601C14.6093 7.99601 14.6135 7.99601 14.6176 7.99601C14.6217 7.99601 14.6258 7.99601 14.6298 7.99601C14.6339 7.99601 14.6379 7.99601 14.6419 7.99601C14.6459 7.99601 14.6498 7.99601 14.6537 7.99601C14.6577 7.99601 14.6616 7.99601 14.6654 7.99601C14.6693 7.99601 14.6731 7.99601 14.6769 7.99601C14.6807 7.99601 14.6845 7.99601 14.6882 7.99601C14.692 7.99601 14.6957 7.99601 14.6993 7.99601C14.703 7.99601 14.7066 7.99601 14.7103 7.99601C14.7139 7.99601 14.7174 7.99601 14.721 7.99601C14.7245 7.99601 14.7281 7.99601 14.7315 7.99601C14.735 7.99601 14.7385 7.99601 14.7419 7.99601C14.7453 7.99601 14.7487 7.99601 14.752 7.99601C14.7554 7.99601 14.7587 7.99601 14.762 7.99601C14.7653 7.99601 14.7686 7.99601 14.7718 7.99601C14.775 7.99601 14.7782 7.99601 14.7814 7.99601C14.7845 7.99601 14.7877 7.99601 14.7908 7.99601C14.7939 7.99601 14.7969 7.99601 14.7999 7.99601C14.803 7.99601 14.806 7.99601 14.8089 7.99601C14.8119 7.99601 14.8148 7.99601 14.8177 7.99601C14.8206 7.99601 14.8235 7.99601 14.8263 7.99601C14.8292 7.99601 14.832 7.99601 14.8347 7.99601C14.8375 7.99601 14.8402 7.99601 14.8429 7.99601C14.8456 7.99601 14.8483 7.99601 14.8509 7.99601C14.8536 7.99601 14.8562 7.99601 14.8587 7.99601C14.8613 7.99601 14.8638 7.99601 14.8663 7.99601C14.8688 7.99601 14.8713 7.99601 14.8737 7.99601C14.8762 7.99601 14.8786 7.99601 14.8809 7.99601C14.8833 7.99601 14.8856 7.99601 14.8879 7.99601C14.8902 7.99601 14.8925 7.99601 14.8947 7.99601C14.8969 7.99601 14.8991 7.99601 14.9013 7.99601C14.9034 7.99601 14.9056 7.99601 14.9077 7.99601C14.9098 7.99601 14.9118 7.99601 14.9138 7.99601C14.9159 7.99601 14.9178 7.99601 14.9198 7.99601C14.9218 7.99601 14.9237 7.99601 14.9256 7.99601C14.9274 7.99601 14.9293 7.99601 14.9311 7.99601C14.9329 7.99601 14.9347 7.99601 14.9364 7.99601C14.9382 7.99601 14.9399 7.99601 14.9416 7.99601C14.9432 7.99601 14.9449 7.99601 14.9465 7.99601C14.9481 7.99601 14.9497 7.99601 14.9512 7.99601C14.9527 7.99601 14.9542 7.99601 14.9557 7.99601C14.9572 7.99601 14.9586 7.99601 14.96 7.99601C14.9614 7.99601 14.9627 7.99601 14.964 7.99601C14.9654 7.99601 14.9667 7.99601 14.9679 7.99601C14.9692 7.99601 14.9704 7.99601 14.9715 7.99601C14.9727 7.99601 14.9739 7.99601 14.975 7.99601C14.9761 7.99601 14.9771 7.99601 14.9782 7.99601C14.9792 7.99601 14.9802 7.99601 14.9812 7.99601C14.9821 7.99601 14.9831 7.99601 14.984 7.99601C14.9848 7.99601 14.9857 7.99601 14.9865 7.99601C14.9873 7.99601 14.9881 7.99601 14.9889 7.99601C14.9896 7.99601 14.9903 7.99601 14.991 7.99601C14.9916 7.99601 14.9923 7.99601 14.9929 7.99601C14.9935 7.99601 14.994 7.99601 14.9945 7.99601C14.9951 7.99601 14.9956 7.99601 14.996 7.99601C14.9965 7.99601 14.9969 7.99601 14.9972 7.99601C14.9976 7.99601 14.998 7.99601 14.9983 7.99601C14.9986 7.99601 14.9988 7.99601 14.999 7.99601C14.9993 7.99601 14.9995 7.99601 14.9996 7.99601C14.9998 7.99601 14.9999 7.99601 14.9999 7.99601C15 7.99601 15.0001 7.99601 15.0001 6.99601ZM0.29285 7.70307L6.29299 13.7039L7.70729 12.2898L1.70715 6.28894L0.29285 7.70307Z"
          fill="#FF2660"/>
</svg>
