<svg width="13" height="26" viewBox="0 0 13 26" fill="none" xmlns="http://www.w3.org/2000/svg">
    <path fill-rule="evenodd" clip-rule="evenodd"
          d="M7.04891 26.0008C3.26231 25.9998 1.00024 23.3899 0.998135 19.0208L1.0203 5.51355C1.02 5.16192 1.08169 3.91808 1.87765 2.75208C2.42504 1.94979 3.46894 0.991923 5.33303 0.991923C5.33333 0.991923 5.33543 0.991923 5.33723 0.991923C7.24505 0.991923 8.28176 1.88312 8.81569 2.62981C9.58348 3.70287 9.66613 4.95379 9.66582 5.44078L9.64517 19.0248C9.64517 19.526 9.64637 20.7052 8.85491 21.5145C8.37129 22.0096 7.70321 22.2592 6.87012 22.2592C6.86804 22.2592 6.86624 22.2592 6.86444 22.2592C5.2929 22.2592 4.35351 21.0487 4.35173 19.0188L4.34454 5.49333L5.97926 5.49232L5.98615 19.0178C5.98735 20.5738 6.59133 20.587 6.85815 20.587C6.86264 20.587 6.86624 20.587 6.86834 20.587C7.25373 20.587 7.53283 20.5021 7.69843 20.3323C8.01076 20.0131 8.01046 19.3452 8.00986 19.0248L8.03081 5.44078C8.03081 5.11746 7.9793 4.29296 7.49568 3.617C7.04471 2.98547 6.31795 2.66516 5.33663 2.66516C5.33543 2.66516 5.33483 2.66516 5.33393 2.66516C5.33393 2.66516 5.33363 2.66516 5.33333 2.66516C4.40144 2.66516 3.69023 3.0158 3.2177 3.70792C2.80205 4.31822 2.65442 5.06289 2.65502 5.51355L2.63257 19.0218C2.63376 21.0022 3.20871 24.3285 7.04861 24.3285C10.6151 24.3285 11.364 21.4448 11.364 19.0248L11.3293 7.83244L12.9643 7.82638L12.9987 19.0218C12.9987 23.4576 10.8301 25.9998 7.04891 26.0008Z"
          fill="#FF2660"/>
</svg>
