<svg width="18" height="18" viewBox="0 0 18 18" fill="none" xmlns="http://www.w3.org/2000/svg">
    <path fill-rule="evenodd" clip-rule="evenodd"
          d="M13.7405 8.75422H3.76961H13.7405ZM8.75492 3.76984V13.7396V3.76984ZM3.27102 14.2388C6.29971 17.267 11.2105 17.267 14.2391 14.2388C17.2675 11.2105 17.2675 6.2989 14.2391 3.27068C11.2105 0.242457 6.29971 0.242457 3.27102 3.27068C0.242341 6.2989 0.242341 11.2105 3.27102 14.2388Z"
          fill="black" fill-opacity="0.01"/>
    <path d="M3.27102 14.2388L2.9175 14.5924L2.9175 14.5924L3.27102 14.2388ZM14.2391 14.2388L14.5926 14.5924L14.5927 14.5923L14.2391 14.2388ZM14.2391 3.27068L14.5927 2.91711L14.5926 2.9171L14.2391 3.27068ZM13.7405 8.25422H3.76961V9.25422H13.7405V8.25422ZM8.25492 3.76984V13.7396H9.25492V3.76984H8.25492ZM2.9175 14.5924C6.14144 17.8158 11.3687 17.8158 14.5926 14.5924L13.8856 13.8852C11.0522 16.7182 6.45798 16.7182 3.62455 13.8852L2.9175 14.5924ZM14.5927 14.5923C17.8163 11.3688 17.8163 6.1406 14.5927 2.91711L13.8856 3.62424C16.7187 6.45719 16.7187 11.0522 13.8856 13.8852L14.5927 14.5923ZM14.5926 2.9171C11.3687 -0.306351 6.14144 -0.306349 2.9175 2.9171L3.62455 3.62426C6.45798 0.791263 11.0522 0.791264 13.8856 3.62426L14.5926 2.9171ZM2.9175 2.9171C-0.306484 6.14058 -0.306483 11.3688 2.9175 14.5924L3.62455 13.8852C0.791164 11.0522 0.791166 6.45721 3.62455 3.62426L2.9175 2.9171Z"
          fill="#FF2660"/>
</svg>
