<svg width="18" height="18" viewBox="0 0 18 18" fill="none" xmlns="http://www.w3.org/2000/svg">
    <path fill-rule="evenodd" clip-rule="evenodd"
          d="M13.7407 8.75547H3.76976H13.7407ZM8.75535 3.77107V13.7419V3.77107ZM3.27115 14.24C6.29984 17.2682 11.2106 17.2682 14.2392 14.24C17.2679 11.2118 17.2679 6.30117 14.2392 3.27193C11.2106 0.24269 6.29984 0.24269 3.27115 3.27193C0.242786 6.30117 0.242786 11.2118 3.27115 14.24Z"
          fill="black" fill-opacity="0.01"/>
    <path d="M3.27115 14.24L2.91761 14.5936L2.91763 14.5936L3.27115 14.24ZM14.2392 14.24L13.8857 13.8864L13.8857 13.8864L14.2392 14.24ZM14.2392 3.27193L13.8857 3.62545L13.8857 3.62545L14.2392 3.27193ZM3.27115 3.27193L2.91757 2.91841L2.91755 2.91843L3.27115 3.27193ZM13.7407 8.25547H3.76976V9.25547H13.7407V8.25547ZM8.25535 3.77107V13.7419H9.25535V3.77107H8.25535ZM2.91763 14.5936C6.14156 17.8171 11.3689 17.8171 14.5928 14.5936L13.8857 13.8864C11.0523 16.7194 6.45811 16.7194 3.62468 13.8864L2.91763 14.5936ZM14.5928 14.5936C17.8168 11.3701 17.8167 6.14287 14.5928 2.91841L13.8857 3.62545C16.7192 6.45947 16.7191 11.0535 13.8857 13.8864L14.5928 14.5936ZM14.5928 2.91841C11.3689 -0.306137 6.14152 -0.306136 2.91757 2.91841L3.62474 3.62545C6.45815 0.791516 11.0523 0.791517 13.8857 3.62545L14.5928 2.91841ZM2.91755 2.91843C-0.30598 6.14288 -0.306065 11.3701 2.91761 14.5936L3.6247 13.8864C0.791637 11.0535 0.791552 6.45945 3.62476 3.62543L2.91755 2.91843Z"
          fill="#29C38E"/>
</svg>
