<svg width="61" height="80" viewBox="0 0 61 80" fill="none" xmlns="http://www.w3.org/2000/svg">
<path d="M52 79V4.36996C52 3.87627 52.576 3.15472 53.0303 2.94562L59.1627 0.121738C60.0183 -0.273592 61 0.342154 61 1.27321V78.7281C61 79.4299 60.4223 80 59.7094 80H53.5767C52.8641 80 52 79.7018 52 79Z" fill="white"/>
<path d="M26 78.7286C26 79.4301 26.7212 80 27.4338 80H33.7092C34.4224 80 35 79.4301 35 78.7286V13.4467C35 12.5168 34.0185 11.9013 33.1625 12.2947L26.8874 15.1176C26.4335 15.3266 26 15.7753 26 16.2705V78.7286Z" fill="white"/>
<path d="M0 78.7292C0 79.4304 0.578139 80 1.29066 80H7.70943C8.42202 80 9.00005 79.4304 9.00005 78.7292V25.6204C9.00005 24.6901 8.01842 24.0749 7.16275 24.469L0.744298 27.2896C0.290375 27.4984 0 27.9477 0 28.4418V78.7292Z" fill="white"/>
</svg>
