<svg width="68" height="90" viewBox="0 0 68 90" fill="none" xmlns="http://www.w3.org/2000/svg">
<path d="M40 88.7285C40 89.43 40.7212 89.9999 41.4337 89.9999H47.7091C48.4223 89.9999 49 89.43 49 88.7285L31 13.4466C31 12.5168 30.0184 11.9012 29.1625 12.2946L22.8874 15.1176C22.4334 15.3265 22 15.7752 22 16.2704L40 88.7285Z" fill="white"/>
<path d="M0 88.7285C0 89.43 0.721186 89.9999 1.43374 89.9999H7.70911C8.42232 89.9999 9 89.43 9 88.7285V23.4466C9 22.5168 8.01841 21.9012 7.16245 22.2946L0.8874 25.1176C0.43343 25.3265 0 25.7752 0 26.2704V88.7285Z" fill="white"/>
<path d="M41 89L59 4.36996C59 3.87627 59.576 3.15472 60.0302 2.94562L66.1626 0.121738C67.0183 -0.273592 68 0.342154 68 1.27321L50 88.7281C50 89.4299 49.4222 90 48.7094 90H42.5766C41.8641 90 41 89.7018 41 89Z" fill="white"/>
</svg>
