<svg width="35" height="80" viewBox="0 0 35 80" fill="none" xmlns="http://www.w3.org/2000/svg">
<path d="M26 79V4.36996C26 3.87627 26.576 3.15472 27.0302 2.94562L33.1626 0.121738C34.0183 -0.273592 35 0.342154 35 1.27321V78.7281C35 79.4299 34.4222 80 33.7094 80H27.5767C26.8641 80 26 79.7018 26 79Z" fill="white"/>
<path d="M0 78.7286C0 79.4301 0.721186 80 1.43374 80H7.70911C8.42232 80 9 79.4301 9 78.7286V13.4467C9 12.5168 8.01841 11.9013 7.16245 12.2947L0.8874 15.1176C0.43343 15.3266 0 15.7753 0 16.2705V78.7286Z" fill="white"/>
</svg>
