<svg width="46" height="90" viewBox="0 0 46 90" fill="none" xmlns="http://www.w3.org/2000/svg">
<path d="M18 88.7285C18 89.43 18.7212 89.9999 19.4337 89.9999H25.7091C26.4223 89.9999 27 89.43 27 88.7285L9 13.4466C9 12.5168 8.01841 11.9012 7.16245 12.2946L0.8874 15.1176C0.43343 15.3265 0 15.7752 0 16.2704L18 88.7285Z" fill="white"/>
<path d="M19 89L37 4.36996C37 3.87627 37.576 3.15472 38.0302 2.94562L44.1626 0.121738C45.0183 -0.273592 46 0.342154 46 1.27321L28 88.7281C28 89.4299 27.4222 90 26.7094 90H20.5766C19.8641 90 19 89.7018 19 89Z" fill="white"/>
</svg>
