<svg width="23" height="24" viewBox="0 0 23 24" fill="none" xmlns="http://www.w3.org/2000/svg">
    <path fill-rule="evenodd" clip-rule="evenodd"
          d="M11.5066 13.0088C7.64322 13.0088 4.20451 14.2708 2.00049 16.234C3.81627 19.6705 7.39194 22.0076 11.5066 22.0076C15.6205 22.0076 19.1969 19.6705 21.0123 16.234C18.8083 14.2708 15.3699 13.0088 11.5066 13.0088ZM11.5066 9.9998C13.9889 9.9998 16.0011 7.98602 16.0011 5.50141C16.0011 3.01578 13.9889 1 11.5066 1C9.02425 1 7.01164 3.01578 7.01164 5.50141C7.01164 7.98602 9.02425 9.9998 11.5066 9.9998Z"
          fill="black" fill-opacity="0.01"/>
    <path d="M2.00049 16.234L1.33535 15.4873L0.750284 16.0085L1.11633 16.7012L2.00049 16.234ZM21.0123 16.234L21.8965 16.7012L22.2625 16.0084L21.6774 15.4873L21.0123 16.234ZM11.5066 12.0088C7.44267 12.0088 3.75337 13.3335 1.33535 15.4873L2.66563 16.9808C4.65565 15.2082 7.84377 14.0088 11.5066 14.0088V12.0088ZM1.11633 16.7012C3.096 20.4478 7.00177 23.0076 11.5066 23.0076V21.0076C7.78211 21.0076 4.53654 18.8931 2.88465 15.7669L1.11633 16.7012ZM11.5066 23.0076C16.0106 23.0076 19.9172 20.4479 21.8965 16.7012L20.1281 15.7669C18.4766 18.8931 15.2303 21.0076 11.5066 21.0076V23.0076ZM21.6774 15.4873C19.2594 13.3335 15.5705 12.0088 11.5066 12.0088V14.0088C15.1694 14.0088 18.3571 15.2081 20.3472 16.9808L21.6774 15.4873ZM11.5066 10.9998C14.542 10.9998 17.0011 8.53753 17.0011 5.50141H15.0011C15.0011 7.43451 13.4358 8.9998 11.5066 8.9998V10.9998ZM17.0011 5.50141C17.0011 2.465 14.5427 0 11.5066 0V2C13.4351 2 15.0011 3.56656 15.0011 5.50141H17.0011ZM11.5066 0C8.47057 0 6.01164 2.46489 6.01164 5.50141H8.01164C8.01164 3.56667 9.57793 2 11.5066 2V0ZM6.01164 5.50141C6.01164 8.53763 8.4713 10.9998 11.5066 10.9998V8.9998C9.5772 8.9998 8.01164 7.4344 8.01164 5.50141H6.01164Z"
          fill="white"/>
</svg>
