<svg width="23" height="24" viewBox="0 0 23 24" fill="none" xmlns="http://www.w3.org/2000/svg">
    <path fill-rule="evenodd" clip-rule="evenodd"
          d="M11.5057 13.0088C7.64236 13.0088 4.20402 14.2688 2 16.232C3.81578 19.6695 7.39145 22.0076 11.5057 22.0076C15.62 22.0076 19.196 19.6695 21.0118 16.232C18.8081 14.2688 15.3694 13.0088 11.5057 13.0088ZM11.5057 10.0008C13.9884 10.0008 16.0007 7.98602 16.0007 5.49938C16.0007 3.01375 13.9884 1 11.5057 1C9.0234 1 7.01115 3.01375 7.01115 5.49938C7.01115 7.98602 9.0234 10.0008 11.5057 10.0008Z"
          fill="black" fill-opacity="0.01"/>
    <path d="M2 16.232L1.33485 15.4853L0.749869 16.0064L1.11578 16.6991L2 16.232ZM21.0118 16.232L21.896 16.6991L22.2619 16.0065L21.677 15.4854L21.0118 16.232ZM11.5057 12.0088C7.44221 12.0088 3.75314 13.3312 1.33485 15.4853L2.66515 16.9788C4.65491 15.2064 7.84251 14.0088 11.5057 14.0088V12.0088ZM1.11578 16.6991C3.09535 20.4466 7.00105 23.0076 11.5057 23.0076V21.0076C7.78185 21.0076 4.53621 18.8923 2.88422 15.765L1.11578 16.6991ZM11.5057 23.0076C16.0103 23.0076 19.9164 20.4467 21.896 16.6991L20.1276 15.765C18.4756 18.8923 15.2296 21.0076 11.5057 21.0076V23.0076ZM21.677 15.4854C19.259 13.3312 15.5695 12.0088 11.5057 12.0088V14.0088C15.1694 14.0088 18.3573 15.2064 20.3466 16.9787L21.677 15.4854ZM11.5057 11.0008C14.542 11.0008 17.0007 8.537 17.0007 5.49938H15.0007C15.0007 7.43504 13.4348 9.00078 11.5057 9.00078V11.0008ZM17.0007 5.49938C17.0007 2.46233 14.5416 0 11.5057 0V2C13.4353 2 15.0007 3.56518 15.0007 5.49938H17.0007ZM11.5057 0C8.4702 0 6.01115 2.46238 6.01115 5.49938H8.01115C8.01115 3.56512 9.57659 2 11.5057 2V0ZM6.01115 5.49938C6.01115 8.53695 8.46976 11.0008 11.5057 11.0008V9.00078C9.57703 9.00078 8.01115 7.43509 8.01115 5.49938H6.01115Z"
          fill="white"/>
</svg>
