<svg width="59" height="28" viewBox="0 0 59 28" fill="none" xmlns="http://www.w3.org/2000/svg">
    <path fill-rule="evenodd" clip-rule="evenodd"
          d="M11.4256 0H0.61511C0.204493 0 0 0.204735 0 0.610428V27.3858C0 27.7929 0.204493 27.9962 0.61511 27.9962H11.4256C13.4456 27.9962 15.0354 27.423 16.192 26.2751C17.3502 25.1295 17.9278 23.5551 17.9278 21.5519V6.44428C17.9278 4.44037 17.3502 2.86819 16.192 1.72106C15.0354 0.57394 13.4456 0 11.4256 0ZM14.721 21.4209C14.721 23.9466 13.4907 25.2084 11.0291 25.2084H3.64722C3.35381 25.2084 3.20797 25.0781 3.20797 24.8168V3.17934C3.20797 2.91806 3.35381 2.7863 3.64722 2.7863H11.0291C13.4907 2.7863 14.721 4.05029 14.721 6.57455V21.4209ZM32.2846 8.50404H30.6696C29.6201 8.50404 28.7094 8.70726 27.9365 9.11594C27.1637 9.52312 26.6386 10.0077 26.363 10.5668H26.1975V8.9544C26.1975 8.70654 25.9784 8.50404 25.7083 8.50404H23.7536C23.4336 8.50404 23.1741 8.74299 23.1741 9.03928V27.461C23.1741 27.7565 23.4336 27.9962 23.7536 27.9962H25.618C25.9377 27.9962 26.1975 27.7565 26.1975 27.461V14.8106C26.1975 13.6129 26.5287 12.669 27.191 11.9819C27.8534 11.2948 28.8063 10.9509 30.0481 10.9509H32.2846C32.4772 10.9762 32.6158 10.9435 32.6987 10.8549C32.7815 10.7648 32.8232 10.6323 32.8232 10.4536V9.03928C32.8232 8.68195 32.6429 8.50404 32.2846 8.50404ZM37.2521 27.9962C37.0043 27.9962 36.803 27.7959 36.803 27.5503V9.93703C36.803 9.76507 36.9039 9.60872 37.0619 9.53505L39.1964 8.54648C39.4941 8.40801 39.8359 8.62314 39.8359 8.94993V27.5503C39.8359 27.7959 39.6346 27.9962 39.3868 27.9962H37.2521ZM45.9854 27.5503C45.9854 27.7959 46.1868 27.9962 46.4348 27.9962H48.5693C48.8176 27.9962 49.0186 27.7959 49.0186 27.5503V4.69866C49.0186 4.37261 48.6769 4.15749 48.3791 4.2952L46.2446 5.28302C46.0866 5.35596 45.9854 5.51379 45.9854 5.68647V27.5503ZM55.1682 27.5503V1.43523C55.1682 1.26175 55.2691 1.10544 55.4274 1.03101L57.5616 0.0439191C57.8596 -0.095269 58.2014 0.120612 58.2014 0.446652V27.5503C58.2014 27.7959 58.0001 27.9962 57.752 27.9962H55.6175C55.3693 27.9962 55.1682 27.7959 55.1682 27.5503Z"
          fill="url(#paint0_linear)"/>
    <defs>
        <linearGradient id="paint0_linear" x1="0" y1="27.9962" x2="58.2014" y2="27.9962" gradientUnits="userSpaceOnUse">
            <stop stop-color="#45BEA0"/>
            <stop offset="1" stop-color="#6DC882"/>
        </linearGradient>
    </defs>
</svg>
