<svg width="22" height="22" viewBox="0 0 22 22" fill="none" xmlns="http://www.w3.org/2000/svg">
    <path fill-rule="evenodd" clip-rule="evenodd"
          d="M14.7483 14.8862L20.9112 20.9022L14.7483 14.8862ZM9.05945 16.7372C13.5104 16.7372 17.1185 13.2149 17.1185 8.86812C17.1185 4.52332 13.5104 1 9.05945 1C4.60847 1 1 4.52332 1 8.86812C1 13.2149 4.60847 16.7372 9.05945 16.7372Z"
          fill="black" fill-opacity="0.01"/>
    <path d="M14.0498 15.6018L20.2127 21.6178L21.6098 20.1866L15.4469 14.1706L14.0498 15.6018ZM9.05945 17.7372C14.04 17.7372 18.1185 13.7896 18.1185 8.86812H16.1185C16.1185 12.6403 12.9808 15.7372 9.05945 15.7372V17.7372ZM18.1185 8.86812C18.1185 3.94863 14.04 0 9.05945 0V2C12.9808 2 16.1185 5.09802 16.1185 8.86812H18.1185ZM9.05945 0C4.07893 0 0 3.94857 0 8.86812H2C2 5.09808 5.13802 2 9.05945 2V0ZM0 8.86812C0 13.7897 4.07893 17.7372 9.05945 17.7372V15.7372C5.13802 15.7372 2 12.6402 2 8.86812H0Z"
          fill="white"/>
</svg>
