<svg width="17" height="18" viewBox="0 0 17 18" fill="none" xmlns="http://www.w3.org/2000/svg">
    <path fill-rule="evenodd" clip-rule="evenodd"
          d="M16.6337 3.78606C16.3906 3.54534 16.1022 3.425 15.7686 3.425H14.538V2.514C14.538 2.09618 14.3874 1.73884 14.0857 1.4417C13.7839 1.14546 13.422 0.996582 12.999 0.996582H12.3842C11.9607 0.996582 11.5983 1.14546 11.297 1.4417C10.9953 1.73884 10.8452 2.09618 10.8452 2.514V3.425H7.1524V2.514C7.1524 2.09618 7.00179 1.73884 6.70058 1.4417C6.39936 1.14546 6.03697 0.996582 5.6134 0.996582H4.99914C4.57557 0.996582 4.21318 1.14546 3.91195 1.4417C3.61022 1.73884 3.45962 2.09618 3.45962 2.514V3.425H2.22903C1.89594 3.425 1.60705 3.54534 1.3639 3.78606C1.11975 4.0252 0.997925 4.30994 0.997925 4.63906V16.7839C0.997925 17.1103 1.11975 17.3953 1.3639 17.6357C1.60705 17.8764 1.89594 17.9964 2.22903 17.9964H15.7681C16.1017 17.9964 16.3906 17.8764 16.6337 17.6357C16.8768 17.3953 16.9992 17.1103 16.9992 16.7839V4.63906C16.9992 4.30994 16.8779 4.0252 16.6337 3.78606ZM12.0758 2.51462C12.0758 2.42714 12.1041 2.35238 12.1622 2.29594C12.2197 2.23886 12.2937 2.2097 12.3837 2.2097H12.999C13.089 2.2097 13.1619 2.23886 13.22 2.29594C13.2776 2.35238 13.3064 2.42714 13.3064 2.51462V5.24702C13.3064 5.3351 13.2776 5.40768 13.22 5.46414C13.1619 5.5206 13.089 5.54912 12.999 5.54912H12.3837C12.2937 5.54912 12.2197 5.5206 12.1622 5.46414C12.1041 5.40768 12.0758 5.3351 12.0758 5.24702V2.51462ZM4.69071 2.51462C4.69071 2.42714 4.71949 2.35238 4.77708 2.29594C4.83465 2.23886 4.90866 2.2097 4.99914 2.2097H5.6134C5.70386 2.2097 5.77738 2.23886 5.83495 2.29594C5.89252 2.35238 5.92181 2.42714 5.92181 2.51462V5.24702C5.92181 5.3351 5.89252 5.40862 5.83495 5.46414C5.77738 5.5206 5.70386 5.54912 5.6134 5.54912H4.99914C4.90866 5.54912 4.83465 5.5206 4.77708 5.46414C4.71949 5.40768 4.69071 5.3351 4.69071 5.24702V2.51462ZM15.7681 16.783H2.22903V7.06686H15.7681V16.783Z"
          fill="#AAAAAA"/>
</svg>
