<svg width="20" height="20" viewBox="0 0 20 20" fill="none" xmlns="http://www.w3.org/2000/svg">
    <path fill-rule="evenodd" clip-rule="evenodd"
          d="M14.199 5.79919L5.79922 14.1996L14.199 5.79919ZM5.79922 5.79919L14.199 14.1996L5.79922 5.79919ZM9.99935 19.2394C15.1026 19.2394 19.2391 15.1025 19.2391 9.99936C19.2391 4.89624 15.1026 0.759033 9.99935 0.759033C4.89606 0.759033 0.759155 4.89624 0.759155 9.99936C0.759155 15.1025 4.89606 19.2394 9.99935 19.2394Z"
          fill="black" fill-opacity="0.01"/>
    <path d="M13.8454 5.44565L5.44566 13.846L6.15279 14.5531L14.5526 6.15273L13.8454 5.44565ZM5.44566 6.15273L13.8454 14.5531L14.5526 13.846L6.15279 5.44565L5.44566 6.15273ZM9.99935 19.7394C15.3788 19.7394 19.7391 15.3786 19.7391 9.99936H18.7391C18.7391 14.8264 14.8265 18.7394 9.99935 18.7394V19.7394ZM19.7391 9.99936C19.7391 4.62015 15.3788 0.259033 9.99935 0.259033V1.25903C14.8265 1.25903 18.7391 5.17234 18.7391 9.99936H19.7391ZM9.99935 0.259033C4.6199 0.259033 0.259155 4.62012 0.259155 9.99936H1.25916C1.25916 5.17237 5.17222 1.25903 9.99935 1.25903V0.259033ZM0.259155 9.99936C0.259155 15.3787 4.61992 19.7394 9.99935 19.7394V18.7394C5.17219 18.7394 1.25916 14.8264 1.25916 9.99936H0.259155Z"
          fill="#29C38E"/>
</svg>
