<svg width="20" height="20" viewBox="0 0 20 20" fill="none" xmlns="http://www.w3.org/2000/svg">
    <path fill-rule="evenodd" clip-rule="evenodd"
          d="M14.1994 5.79919L5.7991 14.1996L14.1994 5.79919ZM5.7991 5.79919L14.1994 14.1996L5.7991 5.79919ZM9.99923 19.2394C15.1025 19.2394 19.2395 15.1025 19.2395 9.99936C19.2395 4.89624 15.1025 0.759033 9.99923 0.759033C4.89594 0.759033 0.759033 4.89624 0.759033 9.99936C0.759033 15.1025 4.89594 19.2394 9.99923 19.2394Z"
          fill="black" fill-opacity="0.01"/>
    <path d="M13.8458 5.44564L5.44555 13.846L6.15266 14.5531L14.5529 6.15274L13.8458 5.44564ZM5.44555 6.15274L13.8458 14.5531L14.5529 13.846L6.15266 5.44564L5.44555 6.15274ZM9.99923 19.7394C15.3787 19.7394 19.7395 15.3787 19.7395 9.99936H18.7395C18.7395 14.8264 14.8264 18.7394 9.99923 18.7394V19.7394ZM19.7395 9.99936C19.7395 4.62012 15.3787 0.259033 9.99923 0.259033V1.25903C14.8264 1.25903 18.7395 5.17237 18.7395 9.99936H19.7395ZM9.99923 0.259033C4.61978 0.259033 0.259033 4.62012 0.259033 9.99936H1.25903C1.25903 5.17237 5.17209 1.25903 9.99923 1.25903V0.259033ZM0.259033 9.99936C0.259033 15.3787 4.6198 19.7394 9.99923 19.7394V18.7394C5.17207 18.7394 1.25903 14.8264 1.25903 9.99936H0.259033Z"
          fill="#FF2660"/>
</svg>
