<svg width="19" height="20" viewBox="0 0 19 20" fill="none" xmlns="http://www.w3.org/2000/svg">
    <path fill-rule="evenodd" clip-rule="evenodd"
          d="M18.5889 4.1103C18.3155 3.84254 17.9906 3.70816 17.6153 3.70816H16.2307V2.68864C16.2307 2.22283 16.0612 1.82373 15.7225 1.49131C15.3829 1.15988 14.9756 0.993164 14.4995 0.993164H13.8075C13.3317 0.993164 12.9238 1.15988 12.5848 1.49131C12.2458 1.82373 12.0763 2.22283 12.0763 2.68864V3.70816H7.92231V2.68864C7.92231 2.22283 7.75253 1.82373 7.41384 1.49131C7.07457 1.15988 6.66731 0.993164 6.19147 0.993164H5.49885C5.02301 0.993164 4.61576 1.15988 4.27617 1.49131C3.93719 1.82373 3.76769 2.22283 3.76769 2.68864V3.70816H2.38363C2.0084 3.70816 1.68351 3.84254 1.4095 4.1103C1.13549 4.37806 0.998047 4.69735 0.998047 5.06413V18.6371C0.998047 19.0039 1.13549 19.3222 1.4095 19.5899C1.68351 19.8587 2.0084 19.9941 2.38363 19.9941H17.615C17.9903 19.9941 18.3146 19.8587 18.5886 19.5899C18.8626 19.3222 18.9997 19.0039 18.9997 18.6371V5.06413C18.9997 4.69735 18.8629 4.37806 18.5889 4.1103ZM13.461 2.68864C13.461 2.58962 13.4934 2.5098 13.5583 2.44413C13.623 2.38249 13.7063 2.35015 13.8075 2.35015H14.4992C14.6004 2.35015 14.6834 2.38249 14.7481 2.44413C14.8134 2.5098 14.8457 2.58962 14.8457 2.68864V5.74314C14.8457 5.84115 14.8134 5.924 14.7481 5.98666C14.6834 6.0503 14.6004 6.08264 14.4992 6.08264H13.8075C13.7063 6.08264 13.623 6.0503 13.5583 5.98666C13.4934 5.924 13.461 5.84115 13.461 5.74314V2.68864ZM5.15298 2.68864C5.15298 2.58962 5.18532 2.5098 5.25029 2.44413C5.31497 2.38249 5.39792 2.35015 5.49885 2.35015H6.19147C6.29208 2.35015 6.37535 2.38249 6.44003 2.44413C6.505 2.5098 6.53734 2.58962 6.53734 2.68864V5.74314C6.53734 5.84115 6.505 5.924 6.44003 5.98666C6.37535 6.0503 6.29208 6.08264 6.19147 6.08264H5.49885C5.39792 6.08264 5.31497 6.0503 5.25029 5.98666C5.18532 5.924 5.15298 5.84115 5.15298 5.74314V2.68864ZM17.615 18.6361H2.38363V7.77913H17.615V18.6361Z"
          fill="#29C38E"/>
</svg>
