<svg width="30" height="25" viewBox="0 0 30 25" fill="none" xmlns="http://www.w3.org/2000/svg">
    <path fill-rule="evenodd" clip-rule="evenodd"
          d="M25.5203 19.0773C25.0268 19.5497 25.0762 20.7387 27.0757 22.234C24.7688 22.9825 22.543 20.8373 21.8388 20.9902C21.2513 21.1193 20.6344 21.1872 20.0001 21.1872C15.9218 21.1872 12.6161 18.3751 12.6161 14.906C12.6161 11.4372 15.9218 8.62447 20.0001 8.62447C24.0774 8.62447 27.3836 11.4372 27.3836 14.906C27.3836 16.5065 26.6794 17.9675 25.5203 19.0773Z"
          fill="black" fill-opacity="0.01" stroke="#29C38E"/>
    <path fill-rule="evenodd" clip-rule="evenodd"
          d="M4.85677 15.3446C5.44997 15.9203 5.39085 17.3691 2.98519 19.1918C5.76095 20.1037 8.43904 17.4895 9.28618 17.6756C9.99297 17.8329 10.7352 17.916 11.4991 17.916C16.4055 17.916 20.3826 14.4885 20.3826 10.2607C20.3826 6.03291 16.4055 2.60506 11.4991 2.60506C6.59214 2.60506 2.6151 6.03291 2.6151 10.2607C2.6151 12.2111 3.46221 13.9919 4.85677 15.3446Z"
          fill="#F9F9F9" stroke="#29C38E"/>
</svg>
