<svg width="22" height="22" viewBox="0 0 22 22" fill="none" xmlns="http://www.w3.org/2000/svg">
    <path fill-rule="evenodd" clip-rule="evenodd"
          d="M10.9993 20.2394C16.1026 20.2394 20.2395 16.1025 20.2395 10.9993C20.2395 5.8962 16.1026 1.75899 10.9993 1.75899C5.896 1.75899 1.7591 5.8962 1.7591 10.9993C1.7591 16.1025 5.896 20.2394 10.9993 20.2394Z"
          fill="black" fill-opacity="0.01" stroke="#FF2660"/>
    <path fill-rule="evenodd" clip-rule="evenodd"
          d="M12.6813 16.3829C12.2068 16.5811 11.8285 16.7322 11.5453 16.8361C11.263 16.9403 10.9341 16.9927 10.5604 16.9927C9.98569 16.9927 9.53848 16.8429 9.2203 16.547C8.90211 16.2495 8.74327 15.8733 8.74327 15.416C8.74327 15.2383 8.7551 15.0556 8.77874 14.8711C8.8029 14.6859 8.84094 14.4771 8.89286 14.2426L9.48759 12.0199C9.53899 11.8049 9.58474 11.602 9.62021 11.4135C9.6567 11.223 9.67367 11.049 9.67367 10.8902C9.67367 10.607 9.61866 10.4085 9.50815 10.2968C9.39661 10.1854 9.18637 10.1305 8.87384 10.1305C8.72066 10.1305 8.56285 10.1547 8.40144 10.205C8.24106 10.2571 8.10228 10.3042 7.98816 10.3508L8.14546 9.66557C8.53406 9.49745 8.90622 9.35353 9.26142 9.23473C9.61661 9.11377 9.95227 9.0539 10.2684 9.0539C10.839 9.0539 11.279 9.20186 11.5895 9.4928C11.8974 9.785 12.0526 10.1644 12.0526 10.6306C12.0526 10.7279 12.0423 10.8986 12.0207 11.1411C11.9991 11.3855 11.9596 11.6076 11.902 11.813L11.3109 14.0295C11.263 14.2082 11.2199 14.4111 11.1808 14.6381C11.1423 14.8658 11.1232 15.0395 11.1232 15.1574C11.1232 15.4505 11.1854 15.6518 11.3103 15.7594C11.4342 15.8658 11.6501 15.9201 11.9554 15.9201C12.0999 15.9201 12.2613 15.8925 12.4448 15.8382C12.6257 15.7858 12.7568 15.738 12.8396 15.6977L12.6813 16.3829ZM12.5764 7.38449C12.3014 7.65529 11.9688 7.79146 11.5812 7.79146C11.1942 7.79146 10.86 7.65529 10.582 7.38449C10.3054 7.11278 10.1661 6.78305 10.1661 6.39718C10.1661 6.01256 10.3064 5.68159 10.582 5.4077C10.86 5.13319 11.1942 4.9967 11.5812 4.9967C11.9688 4.9967 12.3014 5.13319 12.5764 5.4077C12.8514 5.68159 12.9902 6.01256 12.9902 6.39718C12.9902 6.78367 12.8514 7.11278 12.5764 7.38449Z"
          fill="#FF2660"/>
</svg>
