<svg width="22" height="22" viewBox="0 0 22 22" fill="none" xmlns="http://www.w3.org/2000/svg">
    <path fill-rule="evenodd" clip-rule="evenodd"
          d="M10.9996 20.2394C16.1024 20.2394 20.2393 16.1025 20.2393 10.9993C20.2393 5.8962 16.1024 1.75899 10.9996 1.75899C5.8958 1.75899 1.7589 5.8962 1.7589 10.9993C1.7589 16.1025 5.8958 20.2394 10.9996 20.2394Z"
          fill="black" fill-opacity="0.01" stroke="#29C38E"/>
    <path fill-rule="evenodd" clip-rule="evenodd"
          d="M12.6805 16.3829C12.2071 16.5811 11.8282 16.7322 11.545 16.8361C11.2633 16.9403 10.9343 16.9927 10.5601 16.9927C9.98593 16.9927 9.53872 16.8429 9.22002 16.547C8.90184 16.2495 8.74352 15.8733 8.74352 15.416C8.74352 15.2383 8.75534 15.0556 8.77796 14.8711C8.80263 14.6859 8.84118 14.4771 8.8931 14.2426L9.48732 12.0199C9.53924 11.8049 9.58499 11.602 9.61994 11.4135C9.65592 11.223 9.6734 11.049 9.6734 10.8902C9.6734 10.607 9.61788 10.4085 9.50788 10.2968C9.39633 10.1854 9.18661 10.1305 8.87305 10.1305C8.71987 10.1305 8.56258 10.1547 8.40117 10.205C8.24131 10.2571 8.102 10.3042 7.9884 10.3508L8.14519 9.66557C8.5338 9.49745 8.90595 9.35353 9.26166 9.23473C9.61685 9.11377 9.952 9.0539 10.2686 9.0539C10.8387 9.0539 11.2792 9.20186 11.5892 9.4928C11.8971 9.785 12.0528 10.1644 12.0528 10.6306C12.0528 10.7279 12.0421 10.8986 12.021 11.1411C11.9994 11.3855 11.9598 11.6076 11.9017 11.813L11.3111 14.0295C11.2633 14.2082 11.2196 14.4111 11.1805 14.6381C11.142 14.8658 11.1235 15.0395 11.1235 15.1574C11.1235 15.4505 11.1852 15.6518 11.3106 15.7594C11.4334 15.8658 11.6504 15.9201 11.9552 15.9201C12.0996 15.9201 12.2615 15.8925 12.4445 15.8382C12.626 15.7858 12.7566 15.738 12.8393 15.6977L12.6805 16.3829ZM12.5766 7.38449C12.3011 7.65529 11.9685 7.79146 11.581 7.79146C11.1949 7.79146 10.8598 7.65529 10.5822 7.38449C10.3057 7.11278 10.1658 6.78305 10.1658 6.39718C10.1658 6.01256 10.3062 5.68159 10.5822 5.4077C10.8598 5.13319 11.1949 4.9967 11.581 4.9967C11.9685 4.9967 12.3011 5.13319 12.5766 5.4077C12.8511 5.68159 12.9899 6.01256 12.9899 6.39718C12.9899 6.78367 12.8511 7.11278 12.5766 7.38449Z"
          fill="#29C38E"/>
</svg>
