<svg width="16" height="17" viewBox="0 0 16 17" fill="none" xmlns="http://www.w3.org/2000/svg">
    <path fill-rule="evenodd" clip-rule="evenodd"
          d="M7.99997 1.02865C12.1419 1.02865 15.4999 4.48802 15.4999 8.75524C15.4999 13.023 12.1419 16.4828 7.99997 16.4828C3.85778 16.4828 0.5 13.023 0.5 8.75524C0.5 4.48802 3.85778 1.02865 7.99997 1.02865Z"
          fill="url(#paint0_linear)"/>
    <path fill-rule="evenodd" clip-rule="evenodd"
          d="M4.58223 10.0877L6.57554 12.0917L4.58223 10.0877ZM8.34711 6.30455L10.3406 8.3075L8.34711 6.30455ZM9.23304 5.41394L11.2264 7.41689L9.23304 5.41394ZM3.69629 12.9818L4.58223 10.0877L9.93616 4.70707C10.2817 4.35988 10.8434 4.36145 11.1873 4.70707L11.9301 5.45297C12.2752 5.8012 12.2749 6.36388 11.9293 6.71107L6.57554 12.0917L3.69629 12.9818Z"
          fill="black" fill-opacity="0.01"/>
    <path d="M3.69629 12.9818L3.21819 12.8354L2.94178 13.7383L3.84396 13.4594L3.69629 12.9818ZM4.58223 10.0877L4.2278 9.73499L4.1404 9.82282L4.10413 9.94131L4.58223 10.0877ZM9.93616 4.70707L9.58178 4.35434L9.58173 4.35439L9.93616 4.70707ZM11.1873 4.70707L10.8329 5.05975L10.833 5.05988L11.1873 4.70707ZM11.9301 5.45297L12.2852 5.10101L12.2844 5.10016L11.9301 5.45297ZM11.9293 6.71107L11.5749 6.35835L11.5749 6.3584L11.9293 6.71107ZM6.57554 12.0917L6.72321 12.5694L6.84216 12.5326L6.92997 12.4443L6.57554 12.0917ZM4.22773 10.4403L6.22104 12.4443L6.93004 11.7391L4.93673 9.73506L4.22773 10.4403ZM7.99272 6.65726L9.98618 8.66021L10.695 7.95479L8.7015 5.95183L7.99272 6.65726ZM8.87864 5.76664L10.872 7.76959L11.5808 7.06419L9.58744 5.06124L8.87864 5.76664ZM4.17439 13.1281L5.06033 10.234L4.10413 9.94131L3.21819 12.8354L4.17439 13.1281ZM4.93666 10.4403L10.2906 5.05974L9.58173 4.35439L4.2278 9.73499L4.93666 10.4403ZM10.2905 5.05979C10.4401 4.90953 10.6838 4.91 10.8329 5.05975L11.5417 4.35438C11.0029 3.8129 10.1233 3.81023 9.58178 4.35434L10.2905 5.05979ZM10.833 5.05988L11.5758 5.80579L12.2844 5.10016L11.5416 4.35425L10.833 5.05988ZM11.5749 5.80493C11.7269 5.9583 11.7263 6.20627 11.5749 6.35835L12.2837 7.0638C12.8235 6.5215 12.8234 5.64409 12.2852 5.10101L11.5749 5.80493ZM11.5749 6.3584L6.2211 11.739L6.92997 12.4443L12.2838 7.06374L11.5749 6.3584ZM6.42787 11.614L3.54862 12.5041L3.84396 13.4594L6.72321 12.5694L6.42787 11.614Z"
          fill="white"/>
    <defs>
        <linearGradient id="paint0_linear" x1="0" y1="17" x2="16" y2="17" gradientUnits="userSpaceOnUse">
            <stop stop-color="#45BEA0"/>
            <stop offset="1" stop-color="#6DC882"/>
        </linearGradient>
    </defs>
</svg>
