<svg width="20" height="20" viewBox="0 0 20 20" fill="none" xmlns="http://www.w3.org/2000/svg">
    <path fill-rule="evenodd" clip-rule="evenodd"
          d="M4.16508 11.5806L8.1517 15.4697L4.16508 11.5806ZM11.6948 4.23588L15.6815 8.12498L11.6948 4.23588ZM13.4667 2.50908L17.4533 6.39616L13.4667 2.50908ZM0.621338 19.3588H14.7957H0.621338ZM2.39321 17.1985L4.16508 11.5806L14.8729 1.13592C15.5641 0.46298 16.6873 0.463988 17.3752 1.13592L18.8605 2.58386C19.551 3.25881 19.5501 4.35108 18.8593 5.02502L8.1517 15.4697L2.39321 17.1985Z"
          fill="black" fill-opacity="0.01"/>
    <path d="M2.39321 17.1985L1.91636 17.0481L1.63222 17.9491L2.53698 17.6774L2.39321 17.1985ZM4.16508 11.5806L3.81595 11.2227L3.72602 11.3104L3.68824 11.4302L4.16508 11.5806ZM14.8729 1.13592L14.5241 0.777679L14.5238 0.777992L14.8729 1.13592ZM17.3752 1.13592L17.0258 1.49359L17.0262 1.49394L17.3752 1.13592ZM18.8605 2.58386L19.21 2.2263L19.2095 2.22583L18.8605 2.58386ZM18.8593 5.02502L19.2084 5.38294L19.2084 5.38292L18.8593 5.02502ZM8.1517 15.4697L8.29547 15.9486L8.41299 15.9133L8.50083 15.8276L8.1517 15.4697ZM3.81593 11.9385L7.80255 15.8276L8.50085 15.1118L4.51423 11.2227L3.81593 11.9385ZM11.3457 4.59378L15.3323 8.48288L16.0306 7.76708L12.044 3.87797L11.3457 4.59378ZM13.1177 2.86707L17.1043 6.75416L17.8024 6.03817L13.8158 2.15108L13.1177 2.86707ZM0.621338 19.8588H14.7957V18.8588H0.621338V19.8588ZM2.87005 17.3489L4.64193 11.731L3.68824 11.4302L1.91636 17.0481L2.87005 17.3489ZM4.51421 11.9385L15.2221 1.49384L14.5238 0.777992L3.81595 11.2227L4.51421 11.9385ZM15.2218 1.49415C15.7189 1.01011 16.5323 1.01156 17.0258 1.49359L17.7246 0.778244C16.8423 -0.0835802 15.4093 -0.084149 14.5241 0.777679L15.2218 1.49415ZM17.0262 1.49394L18.5114 2.94189L19.2095 2.22583L17.7242 0.77789L17.0262 1.49394ZM18.511 2.94142C19.0006 3.42003 19 4.18918 18.5101 4.66712L19.2084 5.38292C20.1002 4.51297 20.1014 3.0976 19.21 2.2263L18.511 2.94142ZM18.5101 4.6671L7.80257 15.1118L8.50083 15.8276L19.2084 5.38294L18.5101 4.6671ZM8.00793 14.9908L2.24944 16.7197L2.53698 17.6774L8.29547 15.9486L8.00793 14.9908Z"
          fill="#29C38E"/>
</svg>
