<svg width="32" height="33" viewBox="0 0 32 33" fill="none" xmlns="http://www.w3.org/2000/svg">
    <path fill-rule="evenodd" clip-rule="evenodd"
          d="M15.9999 1.9968C24.2837 1.9968 30.9999 8.71203 30.9999 16.9955C30.9999 25.2799 24.2837 31.9961 15.9999 31.9961C7.71555 31.9961 1 25.2799 1 16.9955C1 8.71203 7.71555 1.9968 15.9999 1.9968Z"
          fill="#FF2660"/>
    <path fill-rule="evenodd" clip-rule="evenodd"
          d="M9.16495 19.5818L13.1516 23.4719L9.16495 19.5818ZM16.6947 12.2381L20.6816 16.1262L16.6947 12.2381ZM18.4666 10.5093L22.4532 14.3974L18.4666 10.5093ZM7.39307 25.1998L9.16495 19.5818L19.8728 9.13714C20.5639 8.46318 21.6872 8.46623 22.375 9.13714L23.8606 10.5851C24.5509 11.261 24.5503 12.3533 23.8591 13.0273L13.1516 23.4719L7.39307 25.1998Z"
          fill="black" fill-opacity="0.01"/>
    <path d="M7.39307 25.1998L6.91622 25.0494L6.63213 25.9501L7.53676 25.6787L7.39307 25.1998ZM9.16495 19.5818L8.81582 19.2239L8.72589 19.3116L8.6881 19.4314L9.16495 19.5818ZM19.8728 9.13714L19.5237 8.77916L19.5237 8.77921L19.8728 9.13714ZM22.375 9.13714L22.0259 9.49507L22.0261 9.4952L22.375 9.13714ZM23.8606 10.5851L24.2105 10.2278L24.2096 10.227L23.8606 10.5851ZM23.8591 13.0273L23.5101 12.6693L23.51 12.6693L23.8591 13.0273ZM13.1516 23.4719L13.2953 23.9509L13.4128 23.9156L13.5007 23.8299L13.1516 23.4719ZM8.81575 19.9397L12.8024 23.8298L13.5008 23.1141L9.51414 19.224L8.81575 19.9397ZM16.3456 12.5961L20.3326 16.4842L21.0307 15.7682L17.0438 11.8802L16.3456 12.5961ZM18.1175 10.8672L22.1041 14.7553L22.8023 14.0394L18.8157 10.1513L18.1175 10.8672ZM7.86991 25.3502L9.64179 19.7322L8.6881 19.4314L6.91622 25.0494L7.86991 25.3502ZM9.51407 19.9397L20.2219 9.49506L19.5237 8.77921L8.81582 19.2239L9.51407 19.9397ZM20.2219 9.49511C20.7183 9.01105 21.5317 9.01306 22.0259 9.49507L22.7242 8.7792C21.8426 7.9194 20.4096 7.91532 19.5237 8.77916L20.2219 9.49511ZM22.0261 9.4952L23.5117 10.9431L24.2096 10.227L22.724 8.77907L22.0261 9.4952ZM23.5108 10.9423C24.0008 11.4222 23.9999 12.1916 23.5101 12.6693L24.2082 13.3852C25.1006 12.515 25.1009 11.0999 24.2105 10.2278L23.5108 10.9423ZM23.51 12.6693L12.8024 23.114L13.5007 23.8299L24.2083 13.3852L23.51 12.6693ZM13.0079 22.993L7.24937 24.7209L7.53676 25.6787L13.2953 23.9509L13.0079 22.993Z"
          fill="white"/>
</svg>
