<svg width="20" height="19" viewBox="0 0 20 19" fill="none" xmlns="http://www.w3.org/2000/svg">
    <path fill-rule="evenodd" clip-rule="evenodd"
          d="M2.15319 1.96156C3.37016 1.34622 4.97372 0.995605 6.73902 0.995605C8.50399 0.995605 10.1073 1.34622 11.3243 1.96156C12.2199 2.42333 13.3048 3.25794 13.471 4.51794C13.471 4.68143 13.4734 4.821 13.4759 4.96413C13.48 5.20224 13.4843 5.45019 13.4779 5.83451C17.072 5.83451 19.9994 8.78896 19.9994 12.4144C19.9994 16.0407 17.072 18.9962 13.4779 18.9962C12.4562 18.9962 11.4868 18.7547 10.6247 18.3314C9.51765 18.7547 8.18298 18.9962 6.73902 18.9962C4.97043 18.9962 3.36717 18.6375 2.14629 18.0222C0.925722 17.4058 -0.000488281 16.4712 -0.000488281 15.2678V4.51794C0.138754 3.4277 1.03352 2.47285 2.15319 1.96156ZM10.7607 3.16194C9.77458 2.6638 8.3351 2.32432 6.73902 2.32432C5.14233 2.32432 3.70286 2.6638 2.71705 3.16194C1.81329 3.61664 1.3713 4.16024 1.30393 4.61493C1.2992 5.42559 1.93779 5.82256 2.56753 6.21403C2.61753 6.24511 2.66749 6.27617 2.71705 6.30739C3.70286 6.8045 5.14233 7.143 6.73902 7.143C8.3351 7.143 9.77458 6.8045 10.7607 6.30739C11.4111 5.98 12.2529 5.33838 12.1669 4.55229C12.0699 4.11276 11.6231 3.59543 10.7607 3.16194ZM2.15319 7.50674C1.84894 7.35317 1.56206 7.17735 1.30393 6.98638V7.36934C1.30393 7.86242 1.74112 8.45655 2.72393 8.95467C3.70674 9.44878 5.14592 9.78222 6.73902 9.78222C7.00313 9.78222 7.26604 9.77312 7.51968 9.75595C7.74009 9.25579 8.01828 8.78896 8.34888 8.36358C7.83202 8.4333 7.29539 8.47373 6.73902 8.47373C4.97372 8.47373 3.37016 8.12107 2.15319 7.50674ZM2.13971 10.1258C1.83905 9.97317 1.55875 9.80141 1.30393 9.61144V10.0015C1.30393 10.4946 1.74112 11.0897 2.72393 11.5858C3.70674 12.0799 5.14592 12.4144 6.73902 12.4144C6.76332 12.4144 6.78759 12.4147 6.81181 12.415C6.86009 12.4157 6.90815 12.4164 6.95582 12.4144C6.95582 11.9627 7.00492 11.5191 7.09177 11.0917C6.97438 11.0957 6.8585 11.0988 6.73902 11.0988C4.97013 11.0988 3.35967 10.7421 2.13971 10.1258ZM2.14629 12.7569C1.84413 12.6053 1.56057 12.4346 1.30393 12.2426V12.6356C1.30393 13.1257 1.74112 13.7218 2.72393 14.2169C3.70674 14.7131 5.14592 15.0475 6.73902 15.0475C6.99416 15.0475 7.24718 15.0374 7.49273 15.0192C7.31607 14.608 7.1828 14.1745 7.09177 13.7228C7.07275 13.7235 7.0537 13.7242 7.03462 13.7249C6.9369 13.7284 6.83849 13.7319 6.73902 13.7319C4.97013 13.7319 3.36657 13.3732 2.14629 12.7569ZM2.13971 15.39C1.83905 15.2374 1.55875 15.0657 1.30393 14.8757V15.2678C1.30393 15.7578 1.74712 16.3479 2.73053 16.842C3.71392 17.3391 5.14622 17.6796 6.73902 17.6796C7.63289 17.6796 8.48092 17.5725 9.22536 17.3917C8.84297 17.0592 8.49679 16.6864 8.19915 16.2741C7.72931 16.3307 7.2412 16.3631 6.73902 16.3631C4.97013 16.3631 3.35967 16.0054 2.13971 15.39ZM12.8257 8.45856C12.8218 8.09581 13.1111 7.79877 13.471 7.79572H13.4917C13.8516 7.80179 14.1376 8.1039 14.1301 8.46564V8.97285C14.9072 9.13352 15.6023 9.58517 15.8421 10.3854C15.9472 10.735 15.7526 11.1018 15.4073 11.2089C15.062 11.315 14.697 11.118 14.5919 10.7694C14.502 10.4703 14.1127 10.2217 13.4779 10.2217C13.1114 10.2217 12.8176 10.3299 12.6425 10.4683C12.467 10.6077 12.3909 10.7522 12.3909 10.9897C12.3909 11.231 12.4076 11.2408 12.5669 11.334C12.5836 11.3438 12.602 11.3545 12.6221 11.3665C12.7623 11.45 12.9907 11.533 13.2656 11.6328C13.4035 11.6829 13.5531 11.7372 13.7091 11.798C13.8171 11.8397 13.931 11.8784 14.0489 11.9185C14.3509 12.0212 14.6789 12.1328 15 12.3254C15.4459 12.5922 15.8691 13.159 15.8691 13.84C15.8691 14.4675 15.5714 15.0323 15.1216 15.39C14.8356 15.6184 14.4979 15.773 14.1301 15.8558V16.3631V16.3823C14.125 16.745 13.8292 17.036 13.4689 17.031C13.1087 17.0249 12.8206 16.7268 12.8257 16.3631V15.8558C12.0486 15.6952 11.3536 15.2354 11.1137 14.4362C11.0089 14.0886 11.2033 13.7208 11.5485 13.6147C11.8935 13.5086 12.2588 13.7057 12.3636 14.0532C12.4535 14.3523 12.8431 14.608 13.4779 14.608C13.8445 14.608 14.1382 14.4938 14.3134 14.3544C14.4889 14.2149 14.5649 14.0775 14.5649 13.84C14.5649 13.593 14.5471 13.5826 14.3755 13.4825C14.3625 13.475 14.3486 13.4669 14.3338 13.4581C14.1916 13.372 13.9581 13.2868 13.6773 13.1844C13.543 13.1354 13.3978 13.0825 13.2467 13.0236C13.1381 12.9817 13.0234 12.9428 12.9048 12.9026C12.6034 12.8003 12.2762 12.6893 11.9558 12.4972C11.5099 12.2295 11.0865 11.6707 11.0865 10.9897C11.0865 10.3622 11.3841 9.79131 11.8342 9.43361C12.1202 9.20526 12.458 9.05471 12.8257 8.97285V8.46564V8.45856Z"
          fill="#29C38E"/>
</svg>
