<svg width="41" height="40" viewBox="0 0 41 40" fill="none" xmlns="http://www.w3.org/2000/svg">
    <path fill-rule="evenodd" clip-rule="evenodd"
          d="M32.8663 19.996H7.9281H32.8663ZM20.3969 7.52579V32.4645V7.52579ZM6.68105 33.712C14.2564 41.2867 26.5381 41.2867 34.1133 33.712C41.6886 26.1367 41.6886 13.8551 34.1133 6.2801C26.5381 -1.29454 14.2564 -1.29454 6.68105 6.2801C-0.893683 13.8551 -0.893683 26.1367 6.68105 33.712Z"
          fill="black" fill-opacity="0.01"/>
    <path d="M6.68105 33.712L6.32748 34.0656L6.32751 34.0656L6.68105 33.712ZM34.1133 33.712L34.4669 34.0656L34.4669 34.0656L34.1133 33.712ZM34.1133 6.2801L34.4669 5.92654L34.4669 5.92654L34.1133 6.2801ZM6.68105 6.2801L6.32751 5.92654L6.32749 5.92656L6.68105 6.2801ZM32.8663 19.496H7.9281V20.496H32.8663V19.496ZM7.9281 20.496H32.8663V19.496H7.9281V20.496ZM19.8969 7.52579V32.4645H20.8969V7.52579H19.8969ZM20.8969 32.4645V7.52579H19.8969V32.4645H20.8969ZM6.32751 34.0656C14.0981 41.8355 26.6964 41.8355 34.4669 34.0656L33.7598 33.3585C26.3798 40.7379 14.4146 40.7379 7.03459 33.3585L6.32751 34.0656ZM34.4669 34.0656C42.2374 26.295 42.2374 13.6968 34.4669 5.92654L33.7598 6.63366C41.1398 14.0133 41.1398 25.9784 33.7598 33.3585L34.4669 34.0656ZM34.4669 5.92654C26.6964 -1.84335 14.0981 -1.84335 6.32751 5.92654L7.03459 6.63367C14.4146 -0.74573 26.3798 -0.745729 33.7598 6.63367L34.4669 5.92654ZM6.32749 5.92656C-1.4425 13.6968 -1.44249 26.295 6.32748 34.0656L7.03462 33.3585C-0.344876 25.9784 -0.344865 14.0133 7.03461 6.63365L6.32749 5.92656Z"
          fill="#29C38E"/>
</svg>
