<svg width="21" height="20" viewBox="0 0 21 20" fill="none" xmlns="http://www.w3.org/2000/svg">
    <path d="M13.8449 7.15539L13.9615 7.39014L14.2209 7.42778L20.2501 8.3026C20.3866 8.32453 20.4591 8.35407 20.4927 8.37246C20.4901 8.37854 20.4865 8.38615 20.4816 8.39533C20.4594 8.43626 20.4158 8.49708 20.3364 8.576C20.3358 8.57654 20.3353 8.57709 20.3347 8.57764L15.9748 12.8133L15.7855 12.9972L15.8305 13.2571L16.8634 19.2336C16.8658 19.2521 16.8692 19.3017 16.8692 19.3939C16.8692 19.4424 16.8627 19.4736 16.8554 19.4937C16.811 19.4896 16.7418 19.4714 16.6438 19.4155L16.636 19.4111L16.628 19.4069L11.2307 16.5815L10.9988 16.4601L10.7669 16.5815L5.36961 19.4069L5.36958 19.4068L5.36214 19.4109C5.24239 19.4762 5.16792 19.4921 5.13065 19.4944C5.12329 19.4743 5.11662 19.4429 5.11662 19.3939C5.11662 19.3949 5.11679 19.3821 5.12005 19.3496C5.12296 19.3205 5.12767 19.2823 5.13462 19.2343L6.16671 13.257L6.21166 12.9967L6.02192 12.8129L1.65671 8.58352C1.58197 8.50174 1.53914 8.43887 1.51639 8.39536C1.51153 8.38607 1.50792 8.37828 1.50523 8.37195C1.53917 8.35357 1.61136 8.32434 1.74657 8.3026L7.77721 7.42778L8.03667 7.39014L8.15327 7.15532L10.8576 1.70882L10.8578 1.70891L10.8636 1.69635C10.9198 1.57485 10.9673 1.52298 10.9896 1.50454C10.9938 1.50108 10.9968 1.499 10.9987 1.49782C11.0006 1.499 11.0035 1.50103 11.0075 1.50434C11.0298 1.52273 11.0773 1.5746 11.1336 1.69635L11.1334 1.69643L11.1396 1.70889L13.8449 7.15539Z"
          fill="black" fill-opacity="0.01" stroke="#FF2660"/>
</svg>
