<svg width="20" height="20" viewBox="0 0 20 20" fill="none" xmlns="http://www.w3.org/2000/svg">
    <path d="M0.41625 9.58344C0.646954 9.58344 0.83375 9.76988 0.83375 10C0.83375 11.2378 1.07547 12.4384 1.55336 13.5681C2.01539 14.6595 2.67578 15.6396 3.51809 16.482C4.36039 17.3243 5.34059 17.9846 6.43191 18.4467C7.56168 18.9246 8.76223 19.1663 10 19.1663C11.2379 19.1663 12.4384 18.9246 13.5679 18.4467C14.6592 17.9846 15.6397 17.3243 16.482 16.482C17.324 15.6397 17.985 14.6595 18.4467 13.5681C18.9243 12.4384 19.1666 11.2378 19.1666 10C19.1666 8.76219 18.9243 7.56164 18.4467 6.43219C17.985 5.34059 17.324 4.36035 16.482 3.51805C15.6397 2.67605 14.6592 2.01504 13.5679 1.55332C12.4384 1.07543 11.2379 0.833398 10 0.833398C8.76223 0.833398 7.56168 1.07539 6.43191 1.55332C5.42238 1.98059 4.50687 2.57902 3.70852 3.3334H5.23805C5.46754 3.3334 5.6543 3.51984 5.6543 3.74996C5.6543 3.98008 5.46754 4.16652 5.23805 4.16652H2.73805C2.50734 4.16652 2.32055 3.98008 2.32055 3.74996V1.25C2.32055 1.01988 2.50731 0.833438 2.73805 0.833438C2.96754 0.833438 3.1543 1.01988 3.1543 1.25V2.71086C4.94383 1.02965 7.35109 0 10 0C15.5228 0 20 4.47723 20 10C20 15.5225 15.5228 20 10 20C4.47754 20 0 15.5225 0 10C0 9.76988 0.186758 9.58344 0.41625 9.58344Z"
          fill="#29C38E"/>
    <path d="M4.16602 5.8335V9.16662V12.5001H15.8332V9.16662V5.8335H4.16602ZM14.9995 9.16662V11.6663H4.99945V9.16662V6.66662H14.9995V9.16662Z"
          fill="#29C38E"/>
    <path d="M9.99165 7.05713C8.84082 7.05713 7.9082 7.99006 7.9082 9.14057C7.9082 10.2911 8.84086 11.2243 9.99165 11.2243C11.1422 11.2243 12.0748 10.2911 12.0748 9.14057C12.0748 7.99006 11.1422 7.05713 9.99165 7.05713ZM9.99165 10.3906C9.30227 10.3906 8.74164 9.82967 8.74164 9.14057C8.74164 8.45119 9.30227 7.89057 9.99165 7.89057C10.6808 7.89057 11.2417 8.45119 11.2417 9.14057C11.2417 9.82967 10.6808 10.3906 9.99165 10.3906Z"
          fill="#29C38E"/>
    <path d="M15.4157 12.9163H4.58289C4.35277 12.9163 4.16602 13.103 4.16602 13.3338C4.16602 13.5633 4.35277 13.75 4.58289 13.75H15.4157C15.6464 13.75 15.8332 13.5633 15.8332 13.3338C15.8332 13.1031 15.6464 12.9163 15.4157 12.9163Z"
          fill="#29C38E"/>
    <path d="M15.4157 14.1663H4.58289C4.35277 14.1663 4.16602 14.353 4.16602 14.5838C4.16602 14.8133 4.35277 15 4.58289 15H15.4157C15.6464 15 15.8332 14.8133 15.8332 14.5838C15.8332 14.3531 15.6464 14.1663 15.4157 14.1663Z"
          fill="#29C38E"/>
</svg>
