<svg width="22" height="21" viewBox="0 0 22 21" fill="none" xmlns="http://www.w3.org/2000/svg">
    <path fill-rule="evenodd" clip-rule="evenodd"
          d="M21.4994 8.30322C21.4994 7.99831 21.2635 7.81066 20.7921 7.73745L14.4567 6.83884L11.6172 1.24935C11.4573 0.912818 11.2512 0.747471 10.9983 0.747471C10.7464 0.747471 10.5403 0.912818 10.3804 1.24935L7.54042 6.83884L1.2045 7.73745C0.73364 7.81066 0.497696 7.99831 0.497696 8.30322C0.497696 8.47289 0.603584 8.66984 0.813824 8.89101L5.40771 13.2419L4.3226 19.3836C4.30513 19.4986 4.2974 19.5808 4.2974 19.6277C4.2974 19.802 4.34161 19.9475 4.42952 20.0644C4.51844 20.1838 4.65003 20.2446 4.82737 20.2446C4.97799 20.2446 5.14659 20.1944 5.33163 20.0957L10.9983 17.1965L16.6655 20.0957C16.8428 20.1944 17.0109 20.2446 17.1703 20.2446C17.3394 20.2446 17.4663 20.1838 17.5558 20.0644C17.6437 19.9475 17.6879 19.802 17.6879 19.6277C17.6879 19.5232 17.6833 19.4397 17.675 19.3836L16.5894 13.2419L21.171 8.89101C21.3894 8.67886 21.4994 8.48157 21.4994 8.30322Z"
          fill="url(#paint0_linear)"/>
    <defs>
        <linearGradient id="paint0_linear" x1="-1" y1="22" x2="23" y2="22" gradientUnits="userSpaceOnUse">
            <stop stop-color="#45BEA0"/>
            <stop offset="1" stop-color="#6DC882"/>
        </linearGradient>
    </defs>
</svg>
