<svg width="19" height="16" viewBox="0 0 19 16" fill="none" xmlns="http://www.w3.org/2000/svg">
    <path fill-rule="evenodd" clip-rule="evenodd"
          d="M14.2496 7.06858C14.2496 8.10325 13.9702 9.04496 13.412 9.89775C12.8535 10.7485 12.1147 11.3618 11.1963 11.7337L14.1648 6.13092C14.2214 6.46536 14.2496 6.7786 14.2496 7.06858ZM13.8576 2.07914C13.8576 2.13067 13.854 2.16604 13.8471 2.17917C13.1047 3.5796 11.9917 5.68431 10.507 8.49731C9.02259 11.3103 7.90592 13.4201 7.15669 14.8256L6.63685 15.8188C6.56616 15.937 6.46734 15.9966 6.34009 15.9966C6.25535 15.9966 5.78191 15.737 4.91946 15.2156C4.80627 15.1408 4.74969 15.0378 4.74969 14.9034C4.74969 14.8144 4.9051 14.4901 5.21622 13.9324C4.20528 13.4484 3.27428 12.8067 2.42233 12.0014C1.57097 11.1982 0.833732 10.2858 0.21177 9.26726C0.0704199 9.03688 -0.000244141 8.78023 -0.000244141 8.49731C-0.000244141 8.2144 0.0704199 7.95776 0.21177 7.72738C1.29338 5.97934 2.63643 4.59811 4.24092 3.58567C5.84568 2.57425 7.59869 2.06803 9.49991 2.06803C10.1288 2.06803 10.7651 2.13067 11.4083 2.259L11.9809 1.17583C12.0513 1.05559 12.1507 0.995972 12.2776 0.995972C12.313 0.995972 12.3765 1.01921 12.4684 1.06367C12.5603 1.10813 12.6699 1.16573 12.7969 1.23645C12.9245 1.30818 13.041 1.37588 13.147 1.44257C13.253 1.51128 13.3644 1.57897 13.4808 1.64971C13.5976 1.71943 13.6665 1.76389 13.6878 1.77804C13.801 1.85281 13.8576 1.95384 13.8576 2.07914ZM1.35718 8.49731C2.53732 10.4161 4.04626 11.8115 5.88401 12.6825L6.71141 11.1082C6.09662 10.6404 5.6157 10.0483 5.26924 9.33393C4.92276 8.62059 4.74969 7.86479 4.74969 7.06858C4.74969 6.16932 4.96529 5.33167 5.39651 4.55871C3.77795 5.42665 2.43131 6.74121 1.35718 8.49731ZM9.49991 4.74766C9.64126 4.74766 9.76164 4.69512 9.86046 4.59104C9.95898 4.48596 10.0084 4.36066 10.0084 4.21111C10.0084 4.0626 9.95898 3.93629 9.86046 3.83221C9.76133 3.72713 9.64097 3.6756 9.49962 3.6756C8.61592 3.6756 7.85772 4.00905 7.22526 4.6749C6.59252 5.34078 6.27629 6.138 6.27629 7.06858C6.27629 7.21711 6.3257 7.34342 6.42483 7.4485C6.52364 7.55258 6.64402 7.6041 6.78537 7.6041C6.92672 7.6041 7.0468 7.55258 7.14591 7.4485C7.24473 7.34342 7.29445 7.21711 7.29445 7.06858C7.29445 6.42898 7.51005 5.88236 7.94096 5.42665C8.37216 4.97399 8.89202 4.74766 9.49991 4.74766ZM17.2558 5.6732C17.8741 6.33502 18.3847 7.02109 18.7875 7.72738C18.9291 7.97997 18.9998 8.23663 18.9998 8.49731C18.9998 8.758 18.9291 9.01465 18.7878 9.26726C18.512 9.74316 18.1266 10.2827 17.6322 10.8859C16.5718 12.1651 15.3435 13.1584 13.9477 13.8647C12.5517 14.5719 11.0691 14.9266 9.49991 14.9266L10.2842 13.4524C11.783 13.319 13.17 12.8098 14.446 11.9236C15.7217 11.0375 16.7874 9.89573 17.6427 8.49731C16.8296 7.16558 15.8331 6.07131 14.6526 5.21548L15.3207 3.96559C15.9924 4.4415 16.6374 5.01037 17.2558 5.6732Z"
          fill="#29C38E"/>
</svg>
