<svg width="19" height="16" viewBox="0 0 19 16" fill="none" xmlns="http://www.w3.org/2000/svg">
    <path fill-rule="evenodd" clip-rule="evenodd"
          d="M14.2498 7.0687C14.2498 8.10338 13.9704 9.04508 13.4122 9.89787C12.8537 10.7487 12.115 11.362 11.1966 11.7338L14.1651 6.13104C14.2217 6.46548 14.2498 6.77872 14.2498 7.0687ZM13.8578 2.07926C13.8578 2.1308 13.8542 2.16617 13.8473 2.17929C13.105 3.57972 11.9919 5.68443 10.5072 8.49743C9.02284 11.3104 7.90616 13.4202 7.15693 14.8257L6.63709 15.8189C6.56641 15.9371 6.46758 15.9968 6.34033 15.9968C6.25559 15.9968 5.78215 15.7371 4.91971 15.2157C4.80652 15.1409 4.74993 15.0379 4.74993 14.9035C4.74993 14.8146 4.90534 14.4902 5.21646 13.9325C4.20552 13.4485 3.27452 12.8069 2.42257 12.0016C1.57122 11.1983 0.833976 10.2859 0.212014 9.26738C0.0706641 9.037 0 8.78036 0 8.49743C0 8.21453 0.0706641 7.95788 0.212014 7.7275C1.29362 5.97947 2.63668 4.59824 4.24116 3.58579C5.84593 2.57437 7.59893 2.06816 9.50015 2.06816C10.129 2.06816 10.7653 2.1308 11.4086 2.25912L11.9811 1.17595C12.0515 1.05571 12.1509 0.996094 12.2779 0.996094C12.3132 0.996094 12.3767 1.01933 12.4687 1.06379C12.5606 1.10825 12.6702 1.16585 12.7971 1.23657C12.9247 1.3083 13.0412 1.376 13.1472 1.44269C13.2532 1.5114 13.3646 1.5791 13.4811 1.64984C13.5979 1.71955 13.6668 1.76401 13.688 1.77816C13.8012 1.85293 13.8578 1.95396 13.8578 2.07926ZM1.35742 8.49743C2.53757 10.4162 4.0465 11.8116 5.88425 12.6826L6.71165 11.1083C6.09686 10.6405 5.61594 10.0484 5.26948 9.33405C4.92301 8.62071 4.74993 7.86491 4.74993 7.0687C4.74993 6.16944 4.96553 5.33179 5.39675 4.55883C3.77819 5.42678 2.43155 6.74133 1.35742 8.49743ZM9.50015 4.74778C9.6415 4.74778 9.76188 4.69524 9.86071 4.59116C9.95922 4.48608 10.0086 4.36078 10.0086 4.21124C10.0086 4.06272 9.95922 3.93641 9.86071 3.83234C9.76158 3.72725 9.64121 3.67572 9.49986 3.67572C8.61617 3.67572 7.85796 4.00917 7.2255 4.67502C6.59276 5.3409 6.27653 6.13812 6.27653 7.0687C6.27653 7.21724 6.32595 7.34354 6.42508 7.44863C6.52388 7.5527 6.64426 7.60422 6.78561 7.60422C6.92696 7.60422 7.04704 7.5527 7.14615 7.44863C7.24497 7.34354 7.29469 7.21724 7.29469 7.0687C7.29469 6.42911 7.51029 5.88248 7.94121 5.42678C8.37241 4.97411 8.89227 4.74778 9.50015 4.74778ZM17.256 5.67332C17.8744 6.33515 18.385 7.02122 18.7877 7.7275C18.9293 7.98009 19 8.23676 19 8.49743C19 8.75813 18.9293 9.01477 18.788 9.26738C18.5122 9.74328 18.1268 10.2829 17.6324 10.8861C16.5721 12.1653 15.3437 13.1585 13.948 13.8648C12.5519 14.5721 11.0693 14.9267 9.50015 14.9267L10.2844 13.4525C11.7832 13.3191 13.1703 12.8099 14.4462 11.9238C15.7219 11.0376 16.7877 9.89585 17.6429 8.49743C16.8299 7.1657 15.8333 6.07143 14.6529 5.2156L15.3209 3.96572C15.9926 4.44162 16.6376 5.01049 17.256 5.67332Z"
          fill="#FF2660"/>
</svg>
