<svg width="19" height="14" viewBox="0 0 19 14" fill="none" xmlns="http://www.w3.org/2000/svg">
    <path fill-rule="evenodd" clip-rule="evenodd"
          d="M18.7878 6.71803C17.7981 4.99627 16.4673 3.612 14.7957 2.56622C13.1239 1.52043 11.3589 0.998047 9.49991 0.998047C7.64091 0.998047 5.87563 1.52043 4.20347 2.56622C2.53193 3.612 1.20146 4.99627 0.21177 6.71803C0.0704199 6.98073 -0.000244141 7.24041 -0.000244141 7.49806C-0.000244141 7.75269 0.0704199 8.01237 0.21177 8.27507C1.20146 9.99683 2.53193 11.3821 4.20347 12.4279C5.87563 13.4737 7.64091 13.9961 9.49991 13.9961C11.3589 13.9961 13.1239 13.4747 14.7957 12.4329C16.4673 11.3912 17.7984 10.0059 18.7878 8.27507C18.9291 8.01237 18.9998 7.75269 18.9998 7.49806C18.9998 7.24041 18.9291 6.98073 18.7878 6.71803ZM7.22526 3.63321C7.85772 2.96029 8.61592 2.6228 9.49962 2.6228C9.64097 2.6228 9.76133 2.67534 9.86046 2.78144C9.95898 2.8855 10.009 3.01485 10.009 3.16438C10.009 3.31494 9.95898 3.44326 9.86046 3.54733C9.76164 3.65342 9.64126 3.70496 9.49991 3.70496C8.89202 3.70496 8.37216 3.93533 7.94096 4.39406C7.51005 4.8528 7.29445 5.4065 7.29445 6.05317C7.29445 6.20373 7.24504 6.33104 7.14591 6.43611C7.04708 6.54221 6.92672 6.59475 6.78537 6.59475C6.64402 6.59475 6.52394 6.54221 6.42483 6.43611C6.3257 6.33104 6.27629 6.2027 6.27629 6.05317C6.27629 5.11145 6.59283 4.30515 7.22526 3.63321ZM14.1064 11.181C12.6894 12.0945 11.1538 12.5512 9.49991 12.5512C7.84544 12.5512 6.31013 12.0955 4.89282 11.181C3.4758 10.2666 2.29686 9.03896 1.35718 7.49806C2.43131 5.72176 3.77795 4.39406 5.39651 3.51398C4.96529 4.29504 4.74969 5.14278 4.74969 6.05317C4.74969 7.44451 5.21472 8.63377 6.14394 9.62297C7.07344 10.6132 8.1919 11.1073 9.49991 11.1073C10.8073 11.1073 11.9261 10.6132 12.8556 9.62297C13.7851 8.63377 14.2496 7.44451 14.2496 6.05317C14.2496 5.14278 14.034 4.29504 13.603 3.51398C15.2216 4.39406 16.5679 5.72176 17.6427 7.49806C16.7024 9.03896 15.524 10.2666 14.1064 11.181Z"
          fill="#29C38E"/>
</svg>
