<svg width="19" height="14" viewBox="0 0 19 14" fill="none" xmlns="http://www.w3.org/2000/svg">
    <path fill-rule="evenodd" clip-rule="evenodd"
          d="M18.788 6.71803C17.7983 4.99627 16.4676 3.612 14.796 2.56622C13.1241 1.52043 11.3592 0.998047 9.50015 0.998047C7.64115 0.998047 5.87587 1.52043 4.20372 2.56622C2.53218 3.612 1.20171 4.99627 0.212014 6.71803C0.0706641 6.98073 0 7.24041 0 7.49806C0 7.75269 0.0706641 8.01237 0.212014 8.27507C1.20171 9.99683 2.53218 11.3821 4.20372 12.4279C5.87587 13.4737 7.64115 13.9961 9.50015 13.9961C11.3592 13.9961 13.1241 13.4747 14.796 12.4329C16.4676 11.3912 17.7986 10.0059 18.788 8.27507C18.9293 8.01237 19 7.75269 19 7.49806C19 7.24041 18.9293 6.98073 18.788 6.71803ZM7.2255 3.63321C7.85796 2.96029 8.61617 2.6228 9.49986 2.6228C9.64121 2.6228 9.76158 2.67534 9.86071 2.78144C9.95922 2.8855 10.0092 3.01485 10.0092 3.16438C10.0092 3.31494 9.95922 3.44326 9.86071 3.54733C9.76188 3.65342 9.6415 3.70496 9.50015 3.70496C8.89227 3.70496 8.37241 3.93533 7.94121 4.39406C7.51029 4.8528 7.29469 5.4065 7.29469 6.05317C7.29469 6.20373 7.24528 6.33104 7.14615 6.43611C7.04733 6.54221 6.92696 6.59475 6.78561 6.59475C6.64426 6.59475 6.52419 6.54221 6.42508 6.43611C6.32595 6.33104 6.27653 6.2027 6.27653 6.05317C6.27653 5.11145 6.59307 4.30515 7.2255 3.63321ZM14.1067 11.181C12.6896 12.0945 11.154 12.5512 9.50015 12.5512C7.84568 12.5512 6.31037 12.0955 4.89306 11.181C3.47604 10.2666 2.29711 9.03896 1.35742 7.49806C2.43155 5.72176 3.77819 4.39406 5.39675 3.51398C4.96553 4.29504 4.74993 5.14278 4.74993 6.05317C4.74993 7.44451 5.21497 8.63377 6.14418 9.62297C7.07368 10.6132 8.19214 11.1073 9.50015 11.1073C10.8076 11.1073 11.9263 10.6132 12.8558 9.62297C13.7854 8.63377 14.2498 7.44451 14.2498 6.05317C14.2498 5.14278 14.0342 4.29504 13.6033 3.51398C15.2218 4.39406 16.5682 5.72176 17.6429 7.49806C16.7026 9.03896 15.5243 10.2666 14.1067 11.181Z"
          fill="#FF2660"/>
</svg>
