<svg width="14" height="14" viewBox="0 0 14 14" fill="none" xmlns="http://www.w3.org/2000/svg">
    <path fill-rule="evenodd" clip-rule="evenodd"
          d="M13.9994 6.03099C13.9994 5.82891 13.8428 5.70362 13.5284 5.65309L9.30486 5.05695L7.41141 1.33053C7.3051 1.1052 7.16736 0.993042 6.99937 0.993042C6.83107 0.993042 6.69332 1.1052 6.58702 1.33053L4.69357 5.05695L0.46977 5.65309C0.15595 5.70362 -0.000976562 5.82891 -0.000976562 6.03099C-0.000976562 6.14517 0.0690974 6.27754 0.209245 6.42405L3.27207 9.32394L2.54858 13.4192C2.53721 13.496 2.53182 13.5505 2.53182 13.5818C2.53182 13.697 2.56116 13.795 2.61985 13.8739C2.67855 13.9527 2.76688 13.9921 2.88488 13.9921C2.98608 13.9921 3.09807 13.9597 3.22146 13.8941L6.99937 11.9621L10.7773 13.8941C10.8953 13.9597 11.0073 13.9921 11.1136 13.9921C11.2261 13.9921 11.3115 13.9527 11.3702 13.8739C11.4292 13.795 11.4585 13.697 11.4585 13.5818C11.4585 13.5121 11.4561 13.4576 11.4504 13.4192L10.7264 9.32394L13.7808 6.42405C13.9269 6.28259 13.9994 6.15123 13.9994 6.03099Z"
          fill="#CCCCCC"/>
</svg>
