<svg width="21" height="20" viewBox="0 0 21 20" fill="none" xmlns="http://www.w3.org/2000/svg">
    <path d="M10.2728 0C4.59807 0 0 4.47596 0 10C0 15.524 4.59807 20 10.2728 20C15.9476 20 20.5456 15.524 20.5456 10C20.5456 4.47596 15.9476 0 10.2728 0ZM11.2112 14.6154H9.32456V7.6875H11.2112V14.6154ZM10.2679 6.93269C9.70979 6.93269 9.25541 6.51923 9.25541 5.97115C9.25541 5.42308 9.71472 5.01442 10.2679 5.01442C10.8309 5.01442 11.2902 5.42308 11.2902 5.97115C11.2902 6.51923 10.8309 6.93269 10.2679 6.93269Z"
          fill="#0085DA"/>
</svg>
