<svg width="20" height="20" viewBox="0 0 20 20" fill="none" xmlns="http://www.w3.org/2000/svg">
    <path d="M10 0C4.47596 0 0 4.47596 0 10C0 15.524 4.47596 20 10 20C15.524 20 20 15.524 20 10C20 4.47596 15.524 0 10 0ZM10.8269 5.26923L10.6779 10.8029C10.6683 11.1971 10.3942 11.5144 10 11.5144C9.60577 11.5144 9.33173 11.1971 9.32211 10.8029L9.17308 5.26923C9.16346 4.80769 9.53365 4.42308 10 4.42308C10.4615 4.42308 10.8365 4.80289 10.8269 5.26923ZM10 14.7115C9.48558 14.7115 9.08173 14.3221 9.08173 13.8269C9.08173 13.3317 9.48558 12.9423 10 12.9423C10.5144 12.9423 10.9183 13.3317 10.9183 13.8269C10.9183 14.3221 10.5144 14.7115 10 14.7115Z"
          fill="#E9CC6A"/>
</svg>
