<svg width="21" height="20" viewBox="0 0 21 20" fill="none" xmlns="http://www.w3.org/2000/svg">
    <path d="M10.2728 0C4.59807 0 0 4.47596 0 10C0 15.524 4.59807 20 10.2728 20C15.9476 20 20.5456 15.524 20.5456 10C20.5456 4.47596 15.9476 0 10.2728 0ZM12.8756 13.6202L10.2728 11.0865L7.67004 13.6202C7.36383 13.9183 6.86007 13.9183 6.55386 13.6202C6.40075 13.4712 6.32173 13.274 6.32173 13.0769C6.32173 12.8798 6.40075 12.6827 6.55386 12.5337L9.15663 10L6.55386 7.46635C6.40075 7.31731 6.32173 7.12019 6.32173 6.92308C6.32173 6.72596 6.40075 6.52885 6.55386 6.37981C6.86007 6.08173 7.36383 6.08173 7.67004 6.37981L10.2728 8.91346L12.8756 6.37981C13.1818 6.08173 13.6856 6.08173 13.9918 6.37981C14.298 6.67788 14.298 7.16827 13.9918 7.46635L11.389 10L13.9918 12.5337C14.298 12.8317 14.298 13.3221 13.9918 13.6202C13.6856 13.9231 13.1818 13.9231 12.8756 13.6202Z"
          fill="#EC6764"/>
</svg>
