<svg width="20" height="20" viewBox="0 0 20 20" fill="none" xmlns="http://www.w3.org/2000/svg">
    <path d="M10 0C4.47596 0 0 4.47596 0 10C0 15.524 4.47596 20 10 20C15.524 20 20 15.524 20 10C20 4.47596 15.524 0 10 0ZM15.1202 7.23558L8.69231 13.6923H8.6875C8.60577 13.774 8.38462 13.9567 8.12981 13.9567C7.94712 13.9567 7.74038 13.8558 7.56731 13.6827L4.875 10.9904C4.79808 10.9135 4.79808 10.7933 4.875 10.7163L5.73077 9.86058C5.76923 9.82212 5.81731 9.80288 5.86538 9.80288C5.91346 9.80288 5.96154 9.82212 6 9.86058L8.13461 11.9952L14 6.08654C14.0385 6.04808 14.0865 6.02885 14.1346 6.02885C14.1875 6.02885 14.2356 6.04808 14.2692 6.08654L15.1106 6.95673C15.1971 7.03846 15.1971 7.15865 15.1202 7.23558Z"
          fill="#29C38E"/>
</svg>
